<svg width="982" height="247" viewBox="0 0 982 247" fill="none" xmlns="http://www.w3.org/2000/svg">
<g filter="url(#filter0_d_58_516)">
<rect x="79.6904" y="29.7532" width="837" height="204" transform="rotate(-2 79.6904 29.7532)" fill="#F8E5B0"/>
</g>
<path d="M293.035 96.0494L292.985 94.6422L308.784 94.0905L308.833 95.4977L301.701 95.7467L302.445 117.046L300.91 117.099L300.166 95.8003L293.035 96.0494ZM312.827 116.651L311.356 116.703L310.551 93.6446L312.022 93.5932L312.396 104.307C313.318 102.289 315.189 100.847 317.907 100.752C322.033 100.608 323.817 103.107 323.951 106.945L324.277 116.283L322.806 116.335L322.49 107.284C322.348 103.223 320.481 102.007 317.858 102.099C314.181 102.227 312.424 105.106 312.537 108.336L312.827 116.651ZM334.23 116.32C329.785 116.475 326.731 113.38 326.563 108.551C326.395 103.754 329.19 100.358 333.476 100.209C337.473 100.069 340.324 102.851 340.47 107.041L340.506 108.064L328.034 108.5C328.308 112.684 330.57 115.103 334.183 114.977C336.902 114.882 338.587 113.638 339.116 111.346L340.619 111.294C339.834 114.491 337.684 116.199 334.23 116.32ZM333.523 101.552C330.388 101.661 328.258 103.913 328.023 107.283L338.961 106.901C338.844 103.575 336.689 101.441 333.523 101.552ZM357.765 115.498C353.32 115.653 350.266 112.558 350.097 107.729C349.929 102.932 352.725 99.5363 357.01 99.3867C361.008 99.2471 363.858 102.029 364.005 106.219L364.04 107.242L351.568 107.678C351.842 111.863 354.104 114.281 357.718 114.155C360.436 114.06 362.122 112.816 362.65 110.525L364.153 110.472C363.368 113.669 361.219 115.378 357.765 115.498ZM357.057 100.73C353.923 100.839 351.792 103.091 351.558 106.461L362.495 106.079C362.379 102.753 360.223 100.619 357.057 100.73ZM370.987 114.652L364.087 99.5238L365.654 99.4691L370.617 110.471C370.964 111.259 371.312 112.047 371.702 113.122C371.984 112.024 372.278 111.277 372.599 110.401L376.783 99.0805L378.318 99.0268L372.49 114.6L370.987 114.652ZM386.265 114.503C381.82 114.658 378.766 111.563 378.597 106.734C378.43 101.937 381.225 98.5411 385.51 98.3915C389.508 98.2519 392.359 101.034 392.505 105.224L392.541 106.247L380.068 106.682C380.342 110.867 382.604 113.286 386.218 113.16C388.936 113.065 390.622 111.821 391.15 109.529L392.653 109.477C391.869 112.674 389.719 114.382 386.265 114.503ZM385.557 99.7346C382.423 99.8441 380.292 102.096 380.058 105.466L390.995 105.084C390.879 101.758 388.723 99.6241 385.557 99.7346ZM397.017 113.743L395.546 113.795L395.01 98.444L396.193 98.4026L396.617 101.366C397.565 99.1872 399.634 97.8983 401.936 97.8178C406.286 97.666 408.006 100.167 408.14 104.005L408.466 113.343L406.995 113.395L406.679 104.344C406.537 100.283 404.733 99.065 401.951 99.1621C398.465 99.2839 396.605 101.942 396.74 105.812L397.017 113.743ZM414.952 113.117L413.481 113.168L412.989 99.0969L409.887 99.2052L409.843 97.926L412.945 97.8177L412.775 92.9566L414.246 92.9052L414.416 97.7663L417.518 97.658L417.563 98.9372L414.46 99.0455L414.952 113.117ZM429.647 112.572L428.176 112.623L427.371 89.5652L428.842 89.5138L429.216 100.227C430.138 98.2098 432.009 96.7677 434.727 96.6728C438.853 96.5287 440.637 99.0279 440.771 102.866L441.097 112.204L439.626 112.255L439.31 103.205C439.168 99.1433 437.301 97.9277 434.678 98.0193C431.001 98.1477 429.244 101.027 429.357 104.257L429.647 112.572ZM449.164 112.306C445.87 112.421 443.919 110.664 443.828 108.042C443.729 105.228 445.841 103.361 449.413 102.948L454.675 102.348L454.655 101.772C454.535 98.3185 452.453 97.3986 450.023 97.4834C447.177 97.5828 445.528 98.9852 445.607 101.224L444.136 101.275C444.031 98.269 446.394 96.2653 450.008 96.1391C453.302 96.0241 455.98 97.5316 456.119 101.497L456.474 111.667L455.29 111.708L454.902 108.84C453.919 110.956 451.818 112.214 449.164 112.306ZM449.31 110.989C452.923 110.862 454.879 108.168 454.747 104.395L454.718 103.563L449.583 104.159C446.49 104.523 445.232 106.072 445.297 107.959C445.371 110.069 447.007 111.069 449.31 110.989ZM458.655 107.428L460.094 107.378C460.163 109.361 461.677 110.525 464.043 110.442C466.634 110.352 468.193 109.144 468.127 107.258C468.074 105.754 467.312 105.013 465.311 104.57L462.697 103.989C460.051 103.409 458.753 101.982 458.687 100.095C458.598 97.5362 460.649 95.7675 463.815 95.657C466.981 95.5464 469.023 97.1721 469.216 99.9511L467.777 100.001C467.612 98.0219 466.165 96.9198 463.862 97.0002C461.4 97.0862 460.092 98.1564 460.158 100.043C460.204 101.354 461.132 102.251 463.003 102.666L465.585 103.248C468.296 103.858 469.523 105.064 469.598 107.206C469.689 109.829 467.512 111.666 464.154 111.783C460.892 111.897 458.752 110.211 458.655 107.428ZM482.183 110.769L480.711 110.821L480.175 95.4699L481.359 95.4286L481.782 98.3916C482.731 96.2132 484.799 94.9242 487.102 94.8438C491.451 94.6919 493.171 97.1934 493.305 101.031L493.632 110.369L492.16 110.421L491.844 101.37C491.703 97.3087 489.899 96.0909 487.117 96.1881C483.631 96.3098 481.77 98.9684 481.906 102.838L482.183 110.769ZM495.916 102.605C495.754 97.9677 498.864 94.433 503.246 94.28C507.627 94.127 510.977 97.4362 511.138 102.073C511.3 106.711 508.19 110.245 503.809 110.398C499.427 110.551 496.078 107.242 495.916 102.605ZM497.419 102.552C497.556 106.486 500.18 109.18 503.762 109.055C507.343 108.93 509.773 106.059 509.635 102.126C509.498 98.1922 506.874 95.4981 503.293 95.6232C499.711 95.7483 497.281 98.6188 497.419 102.552ZM516.772 109.561L515.301 109.613L514.81 95.5412L511.708 95.6496L511.663 94.3703L514.765 94.262L514.595 89.401L516.066 89.3496L516.236 94.2106L519.338 94.1023L519.383 95.3815L516.281 95.4899L516.772 109.561ZM528.561 115.65L528.52 114.466L529.959 114.416C531.206 114.372 532.741 114.319 533.465 112.116L534.16 110.011L527.351 93.8225L528.886 93.7689L534.793 107.971L539.471 93.3992L540.975 93.3468L534.823 112.485C534.1 114.72 532.726 115.696 530.647 115.769C529.815 115.798 529.205 115.755 528.561 115.65ZM549.092 108.817C544.647 108.972 541.593 105.877 541.424 101.048C541.257 96.2507 544.052 92.8551 548.337 92.7054C552.335 92.5658 555.186 95.348 555.332 99.5375L555.368 100.561L542.895 100.996C543.169 105.181 545.431 107.6 549.045 107.474C551.763 107.379 553.449 106.135 553.977 103.843L555.48 103.791C554.696 106.988 552.546 108.696 549.092 108.817ZM548.384 94.0486C545.25 94.158 543.119 96.4098 542.885 99.78L553.822 99.3981C553.706 96.0721 551.55 93.938 548.384 94.0486ZM560.999 108.017L559.528 108.068L559.037 93.9968L555.934 94.1051L555.89 92.8259L558.992 92.7176L558.822 87.8565L560.293 87.8052L560.463 92.6662L563.565 92.5579L563.61 93.8371L560.508 93.9454L560.999 108.017ZM572.807 99.9838C572.638 95.1228 575.402 91.7603 579.815 91.6062C583.109 91.4911 585.64 93.356 586.445 96.2416L584.942 96.2941C584.223 94.0458 582.132 92.8381 579.861 92.9174C576.439 93.0369 574.1 95.7441 574.245 99.9016C574.384 103.867 576.717 106.507 580.139 106.388C582.602 106.302 584.599 104.823 585.23 102.72L586.733 102.667C586.004 105.607 583.448 107.617 580.186 107.731C575.965 107.878 572.975 104.781 572.807 99.9838ZM588.055 99.3874C587.893 94.7502 591.003 91.2155 595.385 91.0625C599.766 90.9095 603.115 94.2186 603.277 98.8558C603.439 103.493 600.329 107.028 595.947 107.181C591.566 107.334 588.217 104.025 588.055 99.3874ZM589.558 99.3349C589.695 103.268 592.319 105.963 595.9 105.837C599.482 105.712 601.912 102.842 601.774 98.9083C601.637 94.9747 599.013 92.2806 595.431 92.4057C591.85 92.5307 589.42 95.4013 589.558 99.3349ZM607.756 106.384L606.285 106.435L605.749 91.0848L606.932 91.0435L607.356 94.0065C608.304 91.8281 610.373 90.5391 612.675 90.4587C617.025 90.3068 618.745 92.8083 618.879 96.6459L619.205 105.984L617.734 106.036L617.418 96.9851C617.276 92.9236 615.472 91.7058 612.69 91.803C609.204 91.9247 607.344 94.5832 607.479 98.4529L607.756 106.384ZM621.491 98.2838C621.322 93.4227 624.086 90.0602 628.499 89.9061C631.793 89.7911 634.324 91.6559 635.129 94.5415L633.626 94.594C632.907 92.3457 630.816 91.138 628.545 91.2173C625.123 91.3368 622.784 94.0441 622.929 98.2015C623.068 102.167 625.401 104.807 628.823 104.688C631.286 104.602 633.284 103.123 633.914 101.02L635.418 100.967C634.688 103.907 632.132 105.917 628.87 106.031C624.649 106.178 621.659 103.081 621.491 98.2838ZM639.757 105.267L638.286 105.318L637.48 82.228L638.951 82.1766L639.757 105.267ZM654.19 89.3932L655.661 89.3418L656.197 104.692L655.013 104.734L654.626 101.898C653.862 103.845 651.733 105.233 649.174 105.322C645.497 105.45 643.522 102.99 643.391 99.2481L643.059 89.7499L644.562 89.6974L644.881 98.8118C645.018 102.745 646.921 104.056 649.479 103.966C652.709 103.854 654.614 101.546 654.475 97.5802L654.19 89.3932ZM665.717 104.744C661.208 104.902 658.527 101.473 658.368 96.932C658.209 92.3907 660.645 88.7835 665.154 88.6261C667.873 88.5311 670.026 89.6727 671.232 92.1281L670.846 81.0628L672.317 81.0115L673.123 104.101L671.94 104.143L671.595 100.697C670.536 103.359 668.371 104.652 665.717 104.744ZM665.83 103.395C669.508 103.267 671.488 100.38 671.352 96.4786C671.217 92.6089 669.039 89.8352 665.361 89.9637C661.715 90.091 659.736 93.0098 659.871 96.8795C660.007 100.781 662.184 103.523 665.83 103.395ZM683.285 104.131C678.84 104.286 675.786 101.191 675.617 96.3616C675.45 91.5645 678.245 88.1689 682.53 88.0193C686.528 87.8797 689.379 90.6619 689.525 94.8513L689.561 95.8747L677.088 96.3103C677.363 100.495 679.624 102.914 683.238 102.788C685.957 102.693 687.642 101.449 688.171 99.1572L689.674 99.1047C688.889 102.302 686.739 104.01 683.285 104.131ZM682.577 89.3625C679.443 89.4719 677.312 91.7236 677.078 95.0939L688.015 94.7119C687.899 91.386 685.743 89.2519 682.577 89.3625ZM698.496 103.6C693.987 103.757 691.305 100.329 691.147 95.7873C690.988 91.2461 693.424 87.6389 697.933 87.4814C700.651 87.3865 702.805 88.528 704.011 90.9834L703.625 79.9182L705.096 79.8668L705.902 102.957L704.719 102.998L704.374 99.552C703.314 102.215 701.15 103.507 698.496 103.6ZM698.609 102.251C702.287 102.122 704.267 99.2355 704.131 95.3339C703.996 91.4642 701.818 88.6906 698.14 88.819C694.494 88.9463 692.515 91.8652 692.65 95.7348C692.786 99.6364 694.963 102.378 698.609 102.251ZM711.394 103.117C710.434 103.151 709.607 102.379 709.574 101.452C709.541 100.492 710.312 99.6648 711.272 99.6313C712.231 99.5978 713.059 100.369 713.092 101.329C713.125 102.256 712.353 103.084 711.394 103.117Z" fill="#5C5790"/>
<path d="M309.665 161.374C299.879 161.715 294.04 155.435 293.722 146.321C293.291 133.992 301.285 124.972 312.51 124.58C321.337 124.272 326.846 129.363 327.404 137.076L319.392 137.356C318.679 133.442 315.693 131.817 311.807 131.953C305.283 132.181 301.451 137.982 301.716 145.561C301.897 150.742 304.851 154.193 309.696 154.024C314.014 153.873 316.883 152.14 318.37 147.958L326.621 147.67C324.186 156.352 318.251 161.074 309.665 161.374ZM334.721 159.922L327.621 160.17L332.067 123.801L339.262 123.55L337.428 138.407C339.359 135.938 341.292 134.91 344.17 134.809C349.495 134.623 353.298 139.005 352.626 144.504L350.791 159.361L343.644 159.611L345.251 146.491C345.666 143.258 344.107 141.247 341.325 141.345C338.542 141.442 336.735 143.33 336.326 146.754L334.721 159.922ZM366.343 159.394C359.243 159.642 354.98 155.853 354.743 149.041C354.454 140.79 360.137 134.348 367.908 134.076C375.344 133.817 379.642 138.614 378.711 146.331L378.488 148.212L361.558 148.899C361.862 152.106 363.452 153.636 366.522 153.529C368.777 153.45 370.469 152.382 371.318 150.575L378.322 150.331C376.87 155.521 372.003 159.197 366.343 159.394ZM367.679 139.896C365.137 139.985 363.086 141.785 362.121 144.413L371.908 144.071C372.247 141.417 370.605 139.794 367.679 139.896ZM380.193 148.152C379.905 139.901 385.588 133.459 393.359 133.188C400.219 132.948 404.429 136.595 404.648 142.88L397.453 143.131C397.225 140.737 395.691 139.446 393.148 139.535C389.742 139.654 387.314 143.005 387.466 147.37C387.577 150.536 389.174 152.257 391.956 152.16C394.163 152.083 395.937 150.628 396.717 148.2L404.009 147.945C402.782 154.087 397.934 158.291 391.794 158.506C384.694 158.754 380.431 154.964 380.193 148.152ZM412.528 157.205L405.38 157.455L409.825 121.086L416.973 120.836L414.436 141.721L423.059 132.823L432.126 132.506L421.83 143L428.406 156.651L420.683 156.92L416.431 147.943L413.276 151.127L412.528 157.205ZM448.474 155.95L441.758 156.184L446.203 119.815L453.351 119.566L451.528 134.758C453.176 132.444 455.624 131.013 458.934 130.898C464.594 130.7 468.925 135.063 469.153 141.588C469.448 150.03 464.324 155.973 457.129 156.224C453.819 156.34 450.597 154.867 449.227 152.754L448.474 155.95ZM450.395 144.932C450.503 148.05 452.496 150.094 455.566 149.987C459.26 149.858 462.168 146.49 462.022 142.317C461.913 139.199 459.921 137.155 456.851 137.262C453.157 137.391 450.249 140.759 450.395 144.932ZM477.945 155.545C473.58 155.698 470.512 153.115 470.373 149.134C470.199 144.145 473.597 141.048 479.958 140.298L486.654 139.487L486.687 139.054C486.891 136.645 485.455 135.399 482.768 135.493C480.034 135.588 478.539 136.793 478.284 139.107L472.048 139.325C472.712 133.586 476.773 130.227 483.345 129.997C490.397 129.751 494.33 133.744 493.503 140.305L491.739 154.439L485.455 154.659L485.391 151.443C484.368 153.784 481.351 155.426 477.945 155.545ZM480.637 150.12C483.612 150.016 485.712 148.262 486.002 145.562L486.148 144.26L482.322 144.73C478.783 145.142 477.523 146.194 477.586 148.017C477.635 149.408 478.719 150.187 480.637 150.12ZM495.688 144.119C495.4 135.868 501.083 129.426 508.854 129.154C515.714 128.915 519.924 132.562 520.143 138.846L512.948 139.098C512.72 136.704 511.186 135.413 508.644 135.502C505.238 135.621 502.809 138.971 502.962 143.337C503.072 146.503 504.669 148.224 507.452 148.127C509.658 148.05 511.432 146.595 512.212 144.166L519.504 143.912C518.277 150.054 513.429 154.258 507.289 154.472C500.189 154.72 495.926 150.931 495.688 144.119ZM528.023 153.172L520.875 153.422L525.321 117.052L532.468 116.803L529.932 137.688L538.554 128.79L547.621 128.473L537.325 138.967L543.901 152.618L536.178 152.887L531.926 143.91L528.771 147.094L528.023 153.172ZM564.197 124.052C562.182 124.122 560.691 122.685 560.622 120.719C560.535 118.224 562.711 115.891 565.254 115.802C567.268 115.732 568.759 117.168 568.828 119.135C568.913 121.582 566.691 123.965 564.197 124.052ZM557.253 152.151L560.205 128.034L567.353 127.784L564.401 151.902L557.253 152.151ZM575.61 151.51L568.463 151.76L571.415 127.642L578.131 127.408L578.317 129.995C580.248 127.526 582.181 126.498 585.06 126.397C590.384 126.211 594.188 130.593 593.515 136.092L591.68 150.949L584.533 151.199L586.14 138.079C586.555 134.846 584.996 132.835 582.214 132.932C579.432 133.03 577.626 134.966 577.216 138.342L575.61 151.51ZM613.724 150.179L606.576 150.429L611.022 114.06L618.169 113.81L613.724 150.179ZM625.289 150.4C620.923 150.552 617.855 147.97 617.716 143.988C617.542 138.999 620.94 135.903 627.302 135.152L633.997 134.342L634.03 133.909C634.234 131.5 632.798 130.253 630.112 130.347C627.377 130.443 625.882 131.648 625.627 133.962L619.391 134.18C620.055 128.441 624.116 125.081 630.688 124.852C637.74 124.606 641.674 128.599 640.846 135.16L639.082 149.294L632.798 149.513L632.734 146.298C631.711 148.639 628.694 150.281 625.289 150.4ZM627.981 144.975C630.955 144.871 633.055 143.116 633.345 140.417L633.492 139.115L629.666 139.584C626.126 139.996 624.866 141.049 624.93 142.872C624.978 144.263 626.062 145.042 627.981 144.975ZM652.075 148.84L644.928 149.09L647.128 130.954L642.667 131.11L643.418 125.128L647.88 124.972L648.773 117.544L655.921 117.295L655.027 124.722L659.489 124.567L658.737 130.548L654.276 130.704L652.075 148.84ZM669.87 148.795C662.771 149.043 658.508 145.253 658.27 138.442C657.982 130.191 663.665 123.748 671.436 123.477C678.871 123.217 683.169 128.014 682.238 135.731L682.016 137.612L665.085 138.3C665.389 141.507 666.98 143.036 670.05 142.929C672.304 142.85 673.996 141.783 674.846 139.976L681.849 139.731C680.398 144.921 675.531 148.597 669.87 148.795ZM671.207 129.296C668.664 129.385 666.614 131.186 665.649 133.813L675.435 133.471C675.775 130.818 674.133 129.194 671.207 129.296ZM702.617 123.012L701.796 129.765L699.493 129.846C695.368 129.99 692.606 132.055 692.051 136.782L690.744 147.49L683.596 147.739L686.548 123.622L693.264 123.387L693.243 126.894C694.504 124.496 696.849 122.878 699.871 122.772C700.782 122.74 701.745 122.803 702.617 123.012ZM711.582 136.148L705.73 136.352C705.448 132.423 705.786 125.591 706.533 119.466L707.498 111.363L716.085 111.063L715.119 119.166C714.373 125.292 712.933 132.21 711.582 136.148ZM707.273 147.537C705.018 147.616 703.578 146.273 703.501 144.066C703.408 141.38 705.583 139.047 708.318 138.951C710.572 138.872 712.062 140.261 712.139 142.468C712.231 145.106 709.959 147.443 707.273 147.537Z" fill="#5C5790"/>
<g clip-path="url(#clip0_58_516)">
<path d="M16.7522 100.912L16.0989 97.2448L63.8422 57.0412L122.531 78.2861L123.184 81.9536L75.4414 122.157L16.7522 100.912Z" fill="#FF9911"/>
<path d="M96.0968 79.234L67.266 14.6527L67.264 14.6531C66.8097 13.2869 65.5416 12.1001 63.503 11.362C58.9187 9.7026 52.1169 10.9142 48.3875 14.0546C46.7292 15.4511 45.9486 17.0029 45.9942 18.4419L45.9923 18.4422L41.2348 89.0065C40.1888 94.592 43.7198 99.8423 51.4514 102.641C63.5115 107.007 81.4058 103.819 91.2168 95.5576C97.5058 90.2613 99.0068 84.1145 96.0968 79.234Z" fill="#F18700"/>
<path d="M96.0968 79.234L67.266 14.6527L67.264 14.6531C66.8097 13.2869 65.5416 12.1001 63.503 11.362C58.9187 9.7026 52.1169 10.9142 48.3875 14.0546C46.7292 15.4511 45.9486 17.0029 45.9942 18.4419L45.9923 18.4422L41.2348 89.0065C40.1888 94.592 43.7198 99.8423 51.4514 102.641C63.5115 107.007 81.4058 103.819 91.2168 95.5576C97.5058 90.2613 99.0068 84.1145 96.0968 79.234Z" fill="#F18700"/>
<path d="M74.7883 118.49L75.4416 122.157L16.7524 100.912L16.0991 97.2448L74.7883 118.49Z" fill="#F18700"/>
<path d="M74.7883 118.49L75.4416 122.157L123.185 81.9535L122.531 78.286L74.7883 118.49Z" fill="#D07400"/>
<path d="M49.942 22.7815C45.3577 21.1221 44.6581 17.1949 48.3875 14.0546C52.1168 10.9142 58.9186 9.70261 63.503 11.362C68.0873 13.0215 68.7868 16.9486 65.0575 20.089C61.3282 23.2293 54.5261 24.441 49.942 22.7815Z" fill="#FF9911"/>
<path d="M52.6538 20.4976C49.9033 19.5019 49.4836 17.1457 51.7211 15.2615C53.9585 13.3773 58.0398 12.6504 60.7904 13.646C63.5409 14.6417 63.9606 16.9979 61.7231 18.8821C59.4857 20.7663 55.4044 21.4933 52.6538 20.4976Z" fill="#D07400"/>
<path d="M88.9053 63.1258L79.095 41.1511C78.4889 41.8724 77.78 42.5829 76.9591 43.2741C69.5125 49.5445 55.9305 51.9639 46.777 48.6504C45.7679 48.2852 44.8574 47.8632 44.0392 47.3953L42.4204 71.4059C43.7374 72.4177 45.2726 73.3199 47.0246 74.0816C58.8598 79.2278 76.1775 76.143 85.5077 67.2266C86.8894 65.9069 88.019 64.5298 88.9053 63.1258Z" fill="#E0E0E2"/>
</g>
<g clip-path="url(#clip1_58_516)">
<path d="M862.195 187.49L862.644 183.792L920.07 159.335L969.962 196.838L969.512 200.536L912.087 224.993L862.195 187.49Z" fill="#FF9911"/>
<path d="M944.409 190.002L935.759 119.809L935.757 119.808C935.723 118.369 934.858 116.863 933.125 115.56C929.228 112.631 922.369 111.797 917.884 113.707C915.889 114.557 914.688 115.812 914.31 117.201L914.308 117.201L889.091 183.277C886.455 188.311 888.293 194.365 894.866 199.306C905.119 207.012 923.162 209.206 934.962 204.18C942.527 200.958 945.762 195.521 944.409 190.002Z" fill="#F18700"/>
<path d="M944.409 190.002L935.759 119.809L935.757 119.808C935.723 118.369 934.858 116.863 933.125 115.56C929.228 112.631 922.369 111.797 917.884 113.707C915.889 114.557 914.688 115.812 914.31 117.201L914.308 117.201L889.091 183.277C886.455 188.311 888.293 194.365 894.866 199.306C905.119 207.012 923.162 209.206 934.962 204.18C942.527 200.958 945.762 195.521 944.409 190.002Z" fill="#F18700"/>
<path d="M912.537 221.295L912.088 224.993L862.195 187.49L862.645 183.792L912.537 221.295Z" fill="#F18700"/>
<path d="M912.537 221.295L912.087 224.993L969.512 200.536L969.962 196.838L912.537 221.295Z" fill="#D07400"/>
<path d="M916.814 122.507C912.916 119.577 913.398 115.617 917.883 113.707C922.369 111.797 929.227 112.631 933.125 115.56C937.022 118.489 936.54 122.449 932.055 124.359C927.569 126.27 920.711 125.436 916.814 122.507Z" fill="#FF9911"/>
<path d="M920.075 121.117C917.737 119.36 918.026 116.984 920.717 115.838C923.408 114.691 927.523 115.192 929.862 116.949C932.2 118.707 931.911 121.083 929.22 122.229C926.529 123.375 922.414 122.875 920.075 121.117Z" fill="#D07400"/>
<path d="M942.251 172.494L939.308 148.609C938.517 149.122 937.631 149.593 936.643 150.014C927.687 153.828 913.992 152.163 906.21 146.314C905.353 145.669 904.606 144.999 903.96 144.312L895.38 166.795C896.343 168.149 897.546 169.461 898.998 170.702C908.807 179.089 926.269 181.212 937.802 175.42C939.509 174.563 940.993 173.577 942.251 172.494Z" fill="#E0E0E2"/>
</g>
<defs>
<filter id="filter0_d_58_516" x="66.6904" y="0.542358" width="856.609" height="246.087" filterUnits="userSpaceOnUse" color-interpolation-filters="sRGB">
<feFlood flood-opacity="0" result="BackgroundImageFix"/>
<feColorMatrix in="SourceAlpha" type="matrix" values="0 0 0 0 0 0 0 0 0 0 0 0 0 0 0 0 0 0 127 0" result="hardAlpha"/>
<feOffset dx="-9" dy="9"/>
<feGaussianBlur stdDeviation="2"/>
<feComposite in2="hardAlpha" operator="out"/>
<feColorMatrix type="matrix" values="0 0 0 0 0 0 0 0 0 0 0 0 0 0 0 0 0 0 0.05 0"/>
<feBlend mode="normal" in2="BackgroundImageFix" result="effect1_dropShadow_58_516"/>
<feBlend mode="normal" in="SourceGraphic" in2="effect1_dropShadow_58_516" result="shape"/>
</filter>
<clipPath id="clip0_58_516">
<rect width="113" height="113" fill="white" transform="translate(0 20.8168) rotate(-10.1002)"/>
</clipPath>
<clipPath id="clip1_58_516">
<rect width="113" height="113" fill="white" transform="translate(869.637 106) rotate(6.93149)"/>
</clipPath>
</defs>
</svg>
