<svg width="982" height="247" viewBox="0 0 982 247" fill="none" xmlns="http://www.w3.org/2000/svg">
<g filter="url(#filter0_d_58_516)">
<rect x="79.6904" y="29.7532" width="837" height="204" transform="rotate(-2 79.6904 29.7532)" fill="#F8E5B0"/>
</g>
<path d="M323.281 107.769L316.341 108.011L316.639 116.55L315.104 116.604L314.311 93.8975L322.786 93.6016C327.103 93.4508 329.856 96.1724 330.003 100.394C330.143 104.391 327.566 107.619 323.281 107.769ZM322.771 95.011L315.895 95.2511L316.292 106.604L322.976 106.371C326.526 106.247 328.553 103.775 328.434 100.385C328.315 96.9627 326.097 94.8948 322.771 95.011ZM334.436 115.897L332.965 115.948L332.16 92.89L333.631 92.8386L334.005 103.552C334.928 101.535 336.798 100.093 339.517 99.9976C343.642 99.8535 345.427 102.353 345.561 106.19L345.887 115.529L344.416 115.58L344.099 106.53C343.958 102.468 342.09 101.253 339.468 101.344C335.79 101.473 334.033 104.352 334.146 107.582L334.436 115.897ZM348.171 107.764C348.009 103.127 351.119 99.5924 355.501 99.4394C359.882 99.2864 363.232 102.596 363.394 107.233C363.555 111.87 360.445 115.405 356.064 115.558C351.682 115.711 348.333 112.401 348.171 107.764ZM349.674 107.712C349.811 111.645 352.435 114.339 356.017 114.214C359.598 114.089 362.028 111.219 361.89 107.285C361.753 103.352 359.129 100.658 355.548 100.783C351.966 100.908 349.537 103.778 349.674 107.712ZM369.027 114.721L367.556 114.772L367.065 100.701L363.963 100.809L363.918 99.5297L367.02 99.4214L366.85 94.5603L368.321 94.509L368.491 99.37L371.593 99.2617L371.638 100.541L368.536 100.649L369.027 114.721ZM372.673 106.909C372.511 102.271 375.622 98.7368 380.003 98.5838C384.385 98.4308 387.734 101.74 387.896 106.377C388.058 111.014 384.947 114.549 380.566 114.702C376.185 114.855 372.835 111.546 372.673 106.909ZM374.176 106.856C374.314 110.79 376.937 113.484 380.519 113.359C384.101 113.234 386.53 110.363 386.393 106.43C386.256 102.496 383.632 99.8019 380.05 99.9269C376.468 100.052 374.039 102.923 374.176 106.856ZM389.383 109.847L390.822 109.797C390.892 111.78 392.405 112.944 394.772 112.861C397.362 112.771 398.921 111.563 398.855 109.677C398.803 108.174 398.04 107.432 396.04 106.989L393.426 106.408C390.78 105.828 389.481 104.401 389.415 102.514C389.326 99.9552 391.378 98.1866 394.544 98.076C397.71 97.9654 399.752 99.5912 399.945 102.37L398.506 102.42C398.341 100.441 396.893 99.3388 394.591 99.4192C392.128 99.5052 390.821 100.575 390.887 102.462C390.932 103.774 391.86 104.67 393.732 105.085L396.314 105.667C399.025 106.277 400.251 107.483 400.326 109.625C400.418 112.248 398.241 114.085 394.883 114.202C391.621 114.316 389.48 112.63 389.383 109.847ZM414.606 113.129L408.953 97.957L410.456 97.9046L414.274 108.21C414.626 109.126 414.947 110.043 415.308 111.215C415.523 110.055 416.067 108.211 416.097 108.146L419.187 97.5997L420.69 97.5472L424.508 107.852C424.86 108.768 425.179 109.654 425.54 110.826C425.846 109.503 425.759 109.762 426.331 107.789L429.453 97.2412L430.956 97.1887L426.343 112.719L424.84 112.772L420.811 101.93C420.529 101.203 420.281 100.507 420.021 99.4917C419.829 100.395 419.602 101.235 419.372 101.98L416.109 113.077L414.606 113.129ZM433.471 92.394C432.735 92.4197 432.106 91.8333 432.082 91.1297C432.056 90.3942 432.641 89.7333 433.377 89.7076C434.08 89.6831 434.742 90.3003 434.768 91.0359C434.793 91.7395 434.174 92.3694 433.471 92.394ZM433.435 112.471L432.899 97.1208L434.37 97.0695L434.906 112.42L433.435 112.471ZM440.415 112.228L438.944 112.279L438.137 89.1892L439.608 89.1378L440.415 112.228ZM446.045 112.031L444.574 112.082L443.768 88.9926L445.239 88.9412L446.045 112.031ZM459.264 111.57L458.08 111.611L457.274 88.5209L458.745 88.4695L459.131 99.5348C460.164 97.0012 462.232 95.7123 464.95 95.6173C469.46 95.4599 472.141 98.8884 472.299 103.43C472.458 107.971 470.022 111.578 465.513 111.736C462.859 111.828 460.61 110.69 459.367 108.108L459.264 111.57ZM459.315 103.883C459.452 107.785 461.629 110.526 465.306 110.398C468.952 110.271 470.933 107.384 470.796 103.482C470.661 99.6125 468.483 96.8388 464.837 96.9661C461.159 97.0945 459.18 100.013 459.315 103.883ZM481.578 111.175C477.133 111.33 474.079 108.234 473.91 103.405C473.743 98.6083 476.538 95.2127 480.823 95.063C484.821 94.9234 487.672 97.7056 487.818 101.895L487.854 102.918L475.381 103.354C475.656 107.539 477.917 109.958 481.531 109.831C484.25 109.736 485.935 108.493 486.463 106.201L487.967 106.149C487.182 109.346 485.032 111.054 481.578 111.175ZM480.87 96.4062C477.736 96.5157 475.605 98.7674 475.371 102.138L486.308 101.756C486.192 98.4297 484.036 96.2957 480.87 96.4062ZM509.264 94.4541L510.735 94.4027L511.271 109.753L510.088 109.795L509.701 106.958C508.936 108.906 506.807 110.293 504.249 110.383C500.571 110.511 498.596 108.051 498.466 104.309L498.134 94.8108L499.637 94.7583L499.955 103.873C500.093 107.806 501.995 109.117 504.554 109.027C507.784 108.915 509.689 106.607 509.55 102.641L509.264 94.4541ZM515.401 116.109L514.638 94.2664L515.821 94.2251L516.166 97.6712C517.226 95.0086 519.39 93.7163 522.044 93.6236C526.553 93.4661 529.235 96.8946 529.393 101.436C529.552 105.977 527.116 109.584 522.607 109.742C519.889 109.837 517.736 108.695 516.529 106.24L516.872 116.058L515.401 116.109ZM516.409 101.889C516.544 105.759 518.722 108.533 522.4 108.404C526.046 108.277 528.025 105.358 527.89 101.488C527.754 97.5867 525.577 94.845 521.931 94.9723C518.253 95.1008 516.273 97.9877 516.409 101.889ZM534.021 108.959L532.55 109.01L531.744 85.9204L533.215 85.869L534.021 108.959ZM536.633 101.183C536.471 96.5459 539.582 93.0111 543.963 92.8581C548.345 92.7051 551.694 96.0143 551.856 100.651C552.018 105.289 548.908 108.823 544.526 108.976C540.145 109.129 536.795 105.82 536.633 101.183ZM538.136 101.131C538.274 105.064 540.897 107.758 544.479 107.633C548.061 107.508 550.49 104.638 550.353 100.704C550.216 96.7703 547.592 94.0762 544.01 94.2013C540.428 94.3264 537.999 97.1969 538.136 101.131ZM559.227 108.463C555.933 108.578 553.982 106.821 553.89 104.199C553.792 101.384 555.904 99.5175 559.476 99.1046L564.738 98.5046L564.718 97.9289C564.598 94.475 562.516 93.5551 560.086 93.64C557.239 93.7394 555.591 95.1417 555.67 97.3804L554.198 97.4317C554.093 94.4256 556.457 92.4219 560.071 92.2957C563.365 92.1806 566.043 93.6881 566.182 97.6537L566.537 107.823L565.353 107.865L564.965 104.997C563.982 107.112 561.881 108.37 559.227 108.463ZM559.373 107.145C562.986 107.019 564.942 104.325 564.81 100.551L564.781 99.7198L559.646 100.315C556.553 100.68 555.295 102.228 555.36 104.115C555.434 106.226 557.07 107.225 559.373 107.145ZM576.168 107.871C571.659 108.029 568.977 104.6 568.819 100.059C568.66 95.5179 571.096 91.9107 575.605 91.7532C578.323 91.6583 580.477 92.7998 581.683 95.2552L581.297 84.19L582.768 84.1386L583.574 107.229L582.391 107.27L582.046 103.824C580.987 106.486 578.822 107.779 576.168 107.871ZM576.281 106.523C579.959 106.394 581.939 103.507 581.803 99.6057C581.668 95.736 579.49 92.9624 575.812 93.0908C572.166 93.2181 570.187 96.137 570.322 100.007C570.458 103.908 572.635 106.65 576.281 106.523ZM593.736 107.258C589.291 107.413 586.237 104.318 586.068 99.4888C585.901 94.6917 588.696 91.2961 592.981 91.1464C596.979 91.0068 599.83 93.789 599.976 97.9785L600.012 99.0018L587.539 99.4374C587.813 103.622 590.075 106.041 593.689 105.915C596.407 105.82 598.093 104.576 598.621 102.284L600.124 102.232C599.34 105.429 597.19 107.137 593.736 107.258ZM593.028 92.4896C589.894 92.599 587.763 94.8508 587.529 98.221L598.466 97.8391C598.35 94.5131 596.194 92.379 593.028 92.4896ZM608.947 106.727C604.437 106.884 601.756 103.456 601.598 98.9144C601.439 94.3732 603.875 90.766 608.384 90.6085C611.102 90.5136 613.255 91.6552 614.462 94.1106L614.075 83.0453L615.546 82.9939L616.353 106.084L615.169 106.125L614.825 102.679C613.765 105.342 611.601 106.634 608.947 106.727ZM609.06 105.378C612.737 105.25 614.718 102.363 614.582 98.461C614.447 94.5914 612.268 91.8177 608.591 91.9461C604.945 92.0734 602.966 94.9923 603.101 98.8619C603.237 102.764 605.414 105.505 609.06 105.378ZM626.749 101.558L628.188 101.508C628.257 103.491 629.771 104.655 632.137 104.572C634.728 104.482 636.286 103.274 636.22 101.388C636.168 99.8845 635.406 99.1427 633.405 98.7002L630.791 98.1191C628.145 97.5391 626.847 96.1115 626.781 94.2247C626.691 91.6663 628.743 89.8976 631.909 89.787C635.075 89.6765 637.117 91.3022 637.31 94.0811L635.871 94.1314C635.706 92.152 634.258 91.0498 631.956 91.1302C629.493 91.2162 628.186 92.2865 628.252 94.1733C628.298 95.4845 629.225 96.3807 631.097 96.7956L633.679 97.3779C636.39 97.9876 637.617 99.1936 637.692 101.336C637.783 103.959 635.606 105.796 632.248 105.913C628.986 106.027 626.846 104.341 626.749 101.558ZM639.382 97.595C639.22 92.9578 642.331 89.4231 646.712 89.2701C651.093 89.1171 654.443 92.4262 654.605 97.0634C654.767 101.701 651.656 105.235 647.275 105.388C642.893 105.541 639.544 102.232 639.382 97.595ZM640.885 97.5425C641.022 101.476 643.646 104.17 647.228 104.045C650.81 103.92 653.239 101.049 653.102 97.1159C652.964 93.1823 650.341 90.4882 646.759 90.6133C643.177 90.7383 640.748 93.6089 640.885 97.5425ZM656.193 97.0079C656.031 92.3707 659.142 88.836 663.523 88.683C667.904 88.53 671.254 91.8392 671.416 96.4763C671.578 101.114 668.467 104.648 664.086 104.801C659.705 104.954 656.355 101.645 656.193 97.0079ZM657.696 96.9554C657.833 100.889 660.457 103.583 664.039 103.458C667.621 103.333 670.05 100.462 669.913 96.5288C669.775 92.5952 667.152 89.9011 663.57 90.0262C659.988 90.1513 657.559 93.0218 657.696 96.9554ZM675.894 104.005L674.423 104.056L673.887 88.7053L675.071 88.664L675.494 91.627C676.443 89.4486 678.511 88.1596 680.814 88.0792C685.163 87.9273 686.883 90.4288 687.017 94.2665L687.343 103.605L685.872 103.656L685.556 94.6057C685.414 90.5442 683.611 89.3264 680.829 89.4235C677.343 89.5453 675.482 92.2038 675.617 96.0734L675.894 104.005ZM692.626 103.773C691.667 103.806 690.839 103.034 690.807 102.107C690.774 101.148 691.545 100.32 692.505 100.287C693.464 100.253 694.291 101.025 694.325 101.984C694.357 102.912 693.586 103.739 692.626 103.773Z" fill="#5C5790"/>
<path d="M309.665 161.374C299.879 161.715 294.04 155.435 293.722 146.321C293.291 133.992 301.285 124.972 312.51 124.58C321.337 124.272 326.846 129.363 327.404 137.076L319.392 137.356C318.679 133.442 315.693 131.817 311.807 131.953C305.283 132.181 301.451 137.982 301.716 145.561C301.897 150.742 304.851 154.193 309.696 154.024C314.014 153.873 316.883 152.14 318.37 147.958L326.621 147.67C324.186 156.352 318.251 161.074 309.665 161.374ZM334.721 159.922L327.621 160.17L332.067 123.801L339.262 123.55L337.428 138.407C339.359 135.938 341.292 134.91 344.17 134.809C349.495 134.623 353.298 139.005 352.626 144.504L350.791 159.361L343.644 159.611L345.251 146.491C345.666 143.258 344.107 141.247 341.325 141.345C338.542 141.442 336.735 143.33 336.326 146.754L334.721 159.922ZM366.343 159.394C359.243 159.642 354.98 155.853 354.743 149.041C354.454 140.79 360.137 134.348 367.908 134.076C375.344 133.817 379.642 138.614 378.711 146.331L378.488 148.212L361.558 148.899C361.862 152.106 363.452 153.636 366.522 153.529C368.777 153.45 370.469 152.382 371.318 150.575L378.322 150.331C376.87 155.521 372.003 159.197 366.343 159.394ZM367.679 139.896C365.137 139.985 363.086 141.785 362.121 144.413L371.908 144.071C372.247 141.417 370.605 139.794 367.679 139.896ZM380.193 148.152C379.905 139.901 385.588 133.459 393.359 133.188C400.219 132.948 404.429 136.595 404.648 142.88L397.453 143.131C397.225 140.737 395.691 139.446 393.148 139.535C389.742 139.654 387.314 143.005 387.466 147.37C387.577 150.536 389.174 152.257 391.956 152.16C394.163 152.083 395.937 150.628 396.717 148.2L404.009 147.945C402.782 154.087 397.934 158.291 391.794 158.506C384.694 158.754 380.431 154.964 380.193 148.152ZM412.528 157.205L405.38 157.455L409.825 121.086L416.973 120.836L414.436 141.721L423.059 132.823L432.126 132.506L421.83 143L428.406 156.651L420.683 156.92L416.431 147.943L413.276 151.127L412.528 157.205ZM448.474 155.95L441.758 156.184L446.203 119.815L453.351 119.566L451.528 134.758C453.176 132.444 455.624 131.013 458.934 130.898C464.594 130.7 468.925 135.063 469.153 141.588C469.448 150.03 464.324 155.973 457.129 156.224C453.819 156.34 450.597 154.867 449.227 152.754L448.474 155.95ZM450.395 144.932C450.503 148.05 452.496 150.094 455.566 149.987C459.26 149.858 462.168 146.49 462.022 142.317C461.913 139.199 459.921 137.155 456.851 137.262C453.157 137.391 450.249 140.759 450.395 144.932ZM477.945 155.545C473.58 155.698 470.512 153.115 470.373 149.134C470.199 144.145 473.597 141.048 479.958 140.298L486.654 139.487L486.687 139.054C486.891 136.645 485.455 135.399 482.768 135.493C480.034 135.588 478.539 136.793 478.284 139.107L472.048 139.325C472.712 133.586 476.773 130.227 483.345 129.997C490.397 129.751 494.33 133.744 493.503 140.305L491.739 154.439L485.455 154.659L485.391 151.443C484.368 153.784 481.351 155.426 477.945 155.545ZM480.637 150.12C483.612 150.016 485.712 148.262 486.002 145.562L486.148 144.26L482.322 144.73C478.783 145.142 477.523 146.194 477.586 148.017C477.635 149.408 478.719 150.187 480.637 150.12ZM495.688 144.119C495.4 135.868 501.083 129.426 508.854 129.154C515.714 128.915 519.924 132.562 520.143 138.846L512.948 139.098C512.72 136.704 511.186 135.413 508.644 135.502C505.238 135.621 502.809 138.971 502.962 143.337C503.072 146.503 504.669 148.224 507.452 148.127C509.658 148.05 511.432 146.595 512.212 144.166L519.504 143.912C518.277 150.054 513.429 154.258 507.289 154.472C500.189 154.72 495.926 150.931 495.688 144.119ZM528.023 153.172L520.875 153.422L525.321 117.052L532.468 116.803L529.932 137.688L538.554 128.79L547.621 128.473L537.325 138.967L543.901 152.618L536.178 152.887L531.926 143.91L528.771 147.094L528.023 153.172ZM564.197 124.052C562.182 124.122 560.691 122.685 560.622 120.719C560.535 118.224 562.711 115.891 565.254 115.802C567.268 115.732 568.759 117.168 568.828 119.135C568.913 121.582 566.691 123.965 564.197 124.052ZM557.253 152.151L560.205 128.034L567.353 127.784L564.401 151.902L557.253 152.151ZM575.61 151.51L568.463 151.76L571.415 127.642L578.131 127.408L578.317 129.995C580.248 127.526 582.181 126.498 585.06 126.397C590.384 126.211 594.188 130.593 593.515 136.092L591.68 150.949L584.533 151.199L586.14 138.079C586.555 134.846 584.996 132.835 582.214 132.932C579.432 133.03 577.626 134.966 577.216 138.342L575.61 151.51ZM613.724 150.179L606.576 150.429L611.022 114.06L618.169 113.81L613.724 150.179ZM625.289 150.4C620.923 150.552 617.855 147.97 617.716 143.988C617.542 138.999 620.94 135.903 627.302 135.152L633.997 134.342L634.03 133.909C634.234 131.5 632.798 130.253 630.112 130.347C627.377 130.443 625.882 131.648 625.627 133.962L619.391 134.18C620.055 128.441 624.116 125.081 630.688 124.852C637.74 124.606 641.674 128.599 640.846 135.16L639.082 149.294L632.798 149.513L632.734 146.298C631.711 148.639 628.694 150.281 625.289 150.4ZM627.981 144.975C630.955 144.871 633.055 143.116 633.345 140.417L633.492 139.115L629.666 139.584C626.126 139.996 624.866 141.049 624.93 142.872C624.978 144.263 626.062 145.042 627.981 144.975ZM652.075 148.84L644.928 149.09L647.128 130.954L642.667 131.11L643.418 125.128L647.88 124.972L648.773 117.544L655.921 117.295L655.027 124.722L659.489 124.567L658.737 130.548L654.276 130.704L652.075 148.84ZM669.87 148.795C662.771 149.043 658.508 145.253 658.27 138.442C657.982 130.191 663.665 123.748 671.436 123.477C678.871 123.217 683.169 128.014 682.238 135.731L682.016 137.612L665.085 138.3C665.389 141.507 666.98 143.036 670.05 142.929C672.304 142.85 673.996 141.783 674.846 139.976L681.849 139.731C680.398 144.921 675.531 148.597 669.87 148.795ZM671.207 129.296C668.664 129.385 666.614 131.186 665.649 133.813L675.435 133.471C675.775 130.818 674.133 129.194 671.207 129.296ZM702.617 123.012L701.796 129.765L699.493 129.846C695.368 129.99 692.606 132.055 692.051 136.782L690.744 147.49L683.596 147.739L686.548 123.622L693.264 123.387L693.243 126.894C694.504 124.496 696.849 122.878 699.871 122.772C700.782 122.74 701.745 122.803 702.617 123.012ZM711.582 136.148L705.73 136.352C705.448 132.423 705.786 125.591 706.533 119.466L707.498 111.363L716.085 111.063L715.119 119.166C714.373 125.292 712.933 132.21 711.582 136.148ZM707.273 147.537C705.018 147.616 703.578 146.273 703.501 144.066C703.408 141.38 705.583 139.047 708.318 138.951C710.572 138.872 712.062 140.261 712.139 142.468C712.231 145.106 709.959 147.443 707.273 147.537Z" fill="#5C5790"/>
<g clip-path="url(#clip0_58_516)">
<path d="M16.7522 100.912L16.0989 97.2448L63.8422 57.0412L122.531 78.2861L123.184 81.9536L75.4414 122.157L16.7522 100.912Z" fill="#FF9911"/>
<path d="M96.0968 79.234L67.266 14.6527L67.264 14.6531C66.8097 13.2869 65.5416 12.1001 63.503 11.362C58.9187 9.7026 52.1169 10.9142 48.3875 14.0546C46.7292 15.4511 45.9486 17.0029 45.9942 18.4419L45.9923 18.4422L41.2348 89.0065C40.1888 94.592 43.7198 99.8423 51.4514 102.641C63.5115 107.007 81.4058 103.819 91.2168 95.5576C97.5058 90.2613 99.0068 84.1145 96.0968 79.234Z" fill="#F18700"/>
<path d="M96.0968 79.234L67.266 14.6527L67.264 14.6531C66.8097 13.2869 65.5416 12.1001 63.503 11.362C58.9187 9.7026 52.1169 10.9142 48.3875 14.0546C46.7292 15.4511 45.9486 17.0029 45.9942 18.4419L45.9923 18.4422L41.2348 89.0065C40.1888 94.592 43.7198 99.8423 51.4514 102.641C63.5115 107.007 81.4058 103.819 91.2168 95.5576C97.5058 90.2613 99.0068 84.1145 96.0968 79.234Z" fill="#F18700"/>
<path d="M74.7883 118.49L75.4416 122.157L16.7524 100.912L16.0991 97.2448L74.7883 118.49Z" fill="#F18700"/>
<path d="M74.7883 118.49L75.4416 122.157L123.185 81.9535L122.531 78.286L74.7883 118.49Z" fill="#D07400"/>
<path d="M49.942 22.7815C45.3577 21.1221 44.6581 17.1949 48.3875 14.0546C52.1168 10.9142 58.9186 9.70261 63.503 11.362C68.0873 13.0215 68.7868 16.9486 65.0575 20.089C61.3282 23.2293 54.5261 24.441 49.942 22.7815Z" fill="#FF9911"/>
<path d="M52.6538 20.4976C49.9033 19.5019 49.4836 17.1457 51.7211 15.2615C53.9585 13.3773 58.0398 12.6504 60.7904 13.646C63.5409 14.6417 63.9606 16.9979 61.7231 18.8821C59.4857 20.7663 55.4044 21.4933 52.6538 20.4976Z" fill="#D07400"/>
<path d="M88.9053 63.1258L79.095 41.1511C78.4889 41.8724 77.78 42.5829 76.9591 43.2741C69.5125 49.5445 55.9305 51.9639 46.777 48.6504C45.7679 48.2852 44.8574 47.8632 44.0392 47.3953L42.4204 71.4059C43.7374 72.4177 45.2726 73.3199 47.0246 74.0816C58.8598 79.2278 76.1775 76.143 85.5077 67.2266C86.8894 65.9069 88.019 64.5298 88.9053 63.1258Z" fill="#E0E0E2"/>
</g>
<g clip-path="url(#clip1_58_516)">
<path d="M862.195 187.49L862.644 183.792L920.07 159.335L969.962 196.838L969.512 200.536L912.087 224.993L862.195 187.49Z" fill="#FF9911"/>
<path d="M944.409 190.002L935.759 119.809L935.757 119.808C935.723 118.369 934.858 116.863 933.125 115.56C929.228 112.631 922.369 111.797 917.884 113.707C915.889 114.557 914.688 115.812 914.31 117.201L914.308 117.201L889.091 183.277C886.455 188.311 888.293 194.365 894.866 199.306C905.119 207.012 923.162 209.206 934.962 204.18C942.527 200.958 945.762 195.521 944.409 190.002Z" fill="#F18700"/>
<path d="M944.409 190.002L935.759 119.809L935.757 119.808C935.723 118.369 934.858 116.863 933.125 115.56C929.228 112.631 922.369 111.797 917.884 113.707C915.889 114.557 914.688 115.812 914.31 117.201L914.308 117.201L889.091 183.277C886.455 188.311 888.293 194.365 894.866 199.306C905.119 207.012 923.162 209.206 934.962 204.18C942.527 200.958 945.762 195.521 944.409 190.002Z" fill="#F18700"/>
<path d="M912.537 221.295L912.088 224.993L862.195 187.49L862.645 183.792L912.537 221.295Z" fill="#F18700"/>
<path d="M912.537 221.295L912.087 224.993L969.512 200.536L969.962 196.838L912.537 221.295Z" fill="#D07400"/>
<path d="M916.814 122.507C912.916 119.577 913.398 115.617 917.883 113.707C922.369 111.797 929.227 112.631 933.125 115.56C937.022 118.489 936.54 122.449 932.055 124.359C927.569 126.27 920.711 125.436 916.814 122.507Z" fill="#FF9911"/>
<path d="M920.075 121.117C917.737 119.36 918.026 116.984 920.717 115.838C923.408 114.691 927.523 115.192 929.862 116.949C932.2 118.707 931.911 121.083 929.22 122.229C926.529 123.375 922.414 122.875 920.075 121.117Z" fill="#D07400"/>
<path d="M942.251 172.494L939.308 148.609C938.517 149.122 937.631 149.593 936.643 150.014C927.687 153.828 913.992 152.163 906.21 146.314C905.353 145.669 904.606 144.999 903.96 144.312L895.38 166.795C896.343 168.149 897.546 169.461 898.998 170.702C908.807 179.089 926.269 181.212 937.802 175.42C939.509 174.563 940.993 173.577 942.251 172.494Z" fill="#E0E0E2"/>
</g>
<defs>
<filter id="filter0_d_58_516" x="66.6904" y="0.542358" width="856.609" height="246.087" filterUnits="userSpaceOnUse" color-interpolation-filters="sRGB">
<feFlood flood-opacity="0" result="BackgroundImageFix"/>
<feColorMatrix in="SourceAlpha" type="matrix" values="0 0 0 0 0 0 0 0 0 0 0 0 0 0 0 0 0 0 127 0" result="hardAlpha"/>
<feOffset dx="-9" dy="9"/>
<feGaussianBlur stdDeviation="2"/>
<feComposite in2="hardAlpha" operator="out"/>
<feColorMatrix type="matrix" values="0 0 0 0 0 0 0 0 0 0 0 0 0 0 0 0 0 0 0.05 0"/>
<feBlend mode="normal" in2="BackgroundImageFix" result="effect1_dropShadow_58_516"/>
<feBlend mode="normal" in="SourceGraphic" in2="effect1_dropShadow_58_516" result="shape"/>
</filter>
<clipPath id="clip0_58_516">
<rect width="113" height="113" fill="white" transform="translate(0 20.8168) rotate(-10.1002)"/>
</clipPath>
<clipPath id="clip1_58_516">
<rect width="113" height="113" fill="white" transform="translate(869.637 106) rotate(6.93149)"/>
</clipPath>
</defs>
</svg>
