<svg xmlns="http://www.w3.org/2000/svg" width="982" height="247" fill="none"><g filter="url(#a)"><path fill="#F8E5B0" d="M79.7 29.8 916.2.6l7.1 203.9-836.5 29.2z"/></g><path fill="#5C5790" d="M293 96v-1.4l15.8-.5v1.4l-7.1.2.7 21.3-1.5.1-.7-21.3-7.2.2Zm19.8 20.7h-1.4l-.8-23 1.4-.1.4 10.7a6 6 0 0 1 5.5-3.5c4.1-.2 6 2.3 6 6.1l.4 9.4h-1.5l-.3-9c-.2-4-2-5.3-4.6-5.2-3.7.1-5.5 3-5.4 6.2l.3 8.4Zm21.4-.4c-4.4.2-7.5-3-7.6-7.7-.2-4.8 2.6-8.2 6.9-8.4 4-.1 6.8 2.7 7 6.8v1l-12.5.5c.3 4.2 2.6 6.6 6.2 6.5 2.7-.1 4.4-1.4 5-3.7h1.4c-.8 3.2-3 4.9-6.4 5Zm-.7-14.7c-3.1 0-5.2 2.3-5.5 5.7l11-.4c-.2-3.3-2.3-5.5-5.5-5.3Zm24.3 13.9c-4.5.2-7.5-3-7.7-7.8-.2-4.8 2.6-8.2 7-8.3 4-.2 6.8 2.6 6.9 6.8v1l-12.4.5c.2 4.2 2.5 6.6 6.1 6.5 2.7-.1 4.4-1.4 5-3.7h1.5c-.8 3.2-3 4.9-6.4 5Zm-.7-14.8c-3.2.1-5.3 2.4-5.5 5.8l10.9-.4c-.1-3.3-2.3-5.5-5.4-5.4Zm13.9 14-7-15.2h1.7l5 11 1 2.6.9-2.7 4.2-11.3h1.5l-5.8 15.5H371Zm15.3-.2c-4.5.2-7.5-3-7.7-7.8-.2-4.8 2.6-8.2 7-8.3 4-.1 6.8 2.6 6.9 6.8v1l-12.4.5c.2 4.2 2.5 6.6 6.1 6.5 2.7-.1 4.4-1.4 5-3.7h1.5c-.8 3.2-3 4.9-6.4 5Zm-.7-14.8c-3.2.1-5.3 2.4-5.5 5.8l10.9-.4c-.1-3.3-2.3-5.5-5.4-5.4Zm11.4 14h-1.5l-.5-15.3h1.2l.4 3a6 6 0 0 1 5.3-3.6c4.4-.1 6.1 2.4 6.2 6.2l.4 9.3H407l-.3-9c-.2-4-2-5.2-4.7-5.1-3.5 0-5.4 2.7-5.3 6.6l.3 8Zm18-.6h-1.5l-.5-14-3.1.1V98h3l-.1-5h1.4l.2 4.9 3.1-.1v1.2l-3 .1.5 14.1Zm14.6-.5h-1.4l-.8-23h1.4l.4 10.6a6 6 0 0 1 5.5-3.5c4.2-.2 6 2.3 6 6.2l.4 9.3h-1.5l-.3-9c-.1-4-2-5.3-4.6-5.2-3.7.1-5.5 3-5.3 6.3l.2 8.3Zm19.6-.3c-3.3.1-5.3-1.6-5.4-4.3 0-2.8 2-4.6 5.6-5l5.3-.7v-.5c-.2-3.5-2.2-4.4-4.7-4.3-2.8 0-4.5 1.5-4.4 3.7h-1.5c0-3 2.3-5 6-5 3.2-.2 5.9 1.3 6 5.3l.4 10.2h-1.2l-.4-2.9c-1 2.2-3 3.4-5.7 3.5Zm.1-1.3c3.6-.1 5.6-2.8 5.4-6.6v-.8l-5.1.6c-3.1.3-4.4 1.9-4.3 3.8 0 2 1.7 3 4 3Zm9.4-3.6h1.4c0 2 1.6 3.1 4 3 2.5 0 4-1.3 4-3.1 0-1.5-.8-2.3-2.8-2.7l-2.6-.6c-2.6-.6-4-2-4-4-.1-2.5 2-4.2 5.1-4.3 3.2-.2 5.2 1.5 5.4 4.3h-1.4c-.2-2-1.6-3-4-3s-3.7 1.2-3.6 3c0 1.4 1 2.3 2.8 2.7l2.6.5c2.7.7 4 1.9 4 4 0 2.6-2 4.5-5.4 4.6-3.3.1-5.4-1.6-5.5-4.4Zm23.5 3.4h-1.5l-.5-15.3h1.2l.4 2.9a6 6 0 0 1 5.3-3.6c4.4-.1 6 2.4 6.2 6.2l.3 9.4h-1.4l-.4-9c-.1-4-1.9-5.3-4.7-5.2-3.5.1-5.3 2.8-5.2 6.6l.3 8Zm13.7-8.2c-.1-4.6 3-8.2 7.3-8.3 4.4-.2 7.8 3.1 8 7.8.1 4.6-3 8.1-7.4 8.3-4.4.2-7.7-3.2-7.9-7.8Zm1.5 0c.2 3.9 2.8 6.6 6.4 6.5 3.5-.2 6-3 5.8-7-.1-4-2.7-6.6-6.3-6.5-3.6.1-6 3-5.9 7Zm19.4 7h-1.5l-.5-14h-3l-.1-1.2 3-.1-.1-4.9h1.5l.1 4.8 3.1-.1v1.3h-3l.5 14.2Zm11.8 6v-1.1h1.4c1.2-.1 2.7-.2 3.5-2.4l.7-2-6.8-16.3h1.5l5.9 14.2 4.7-14.6h1.5l-6.2 19c-.7 2.3-2 3.3-4.2 3.4l-2-.1Zm20.5-6.8c-4.5.2-7.5-3-7.7-7.8-.1-4.7 2.7-8.1 7-8.3 4-.1 6.8 2.6 7 6.8v1l-12.5.5c.3 4.2 2.5 6.6 6.1 6.5 2.8-.1 4.4-1.4 5-3.7h1.5c-.8 3.2-3 4.9-6.4 5Zm-.7-14.8c-3.1.2-5.3 2.4-5.5 5.8l11-.4c-.2-3.3-2.4-5.5-5.5-5.4Zm12.6 14h-1.5l-.5-14-3 .1-.1-1.3h3v-5h1.4l.2 4.9 3-.1.1 1.2-3 .1.4 14.1Zm11.8-8c-.2-4.9 2.6-8.2 7-8.4a6.3 6.3 0 0 1 6.6 4.6H585c-.7-2.2-2.8-3.4-5-3.3-3.5.1-5.8 2.8-5.7 7 .2 4 2.5 6.6 6 6.5 2.4-.1 4.4-1.6 5-3.7h1.5c-.7 3-3.3 5-6.5 5-4.2.2-7.2-3-7.4-7.7Zm15.3-.6c-.2-4.6 2.9-8.2 7.3-8.3 4.4-.2 7.7 3.1 7.9 7.8.1 4.6-3 8.1-7.4 8.3-4.3.1-7.7-3.2-7.8-7.8Zm1.5 0c.1 3.9 2.7 6.6 6.3 6.4 3.6 0 6-3 5.9-6.9-.2-4-2.8-6.6-6.4-6.5-3.5.1-6 3-5.8 7Zm18.2 7h-1.5l-.6-15.3h1.2l.5 3a6 6 0 0 1 5.3-3.6c4.3-.2 6 2.3 6.2 6.1l.3 9.4h-1.5l-.3-9c-.1-4-2-5.3-4.7-5.2-3.5.1-5.4 2.8-5.2 6.7l.3 7.9Zm13.7-8.1c-.2-4.9 2.6-8.2 7-8.4a6.3 6.3 0 0 1 6.6 4.6h-1.5c-.7-2.2-2.8-3.4-5-3.3-3.5.1-5.8 2.8-5.7 7 .2 4 2.5 6.6 6 6.5 2.4-.1 4.4-1.6 5-3.7h1.5c-.7 3-3.3 5-6.5 5-4.3.2-7.2-3-7.4-7.7Zm18.3 7h-1.5l-.8-23 1.5-.1.8 23Zm14.4-16h1.5l.5 15.4H655l-.4-2.8c-.7 2-2.9 3.3-5.4 3.4-3.7.2-5.7-2.3-5.8-6l-.3-9.6h1.5l.3 9.1c.1 4 2 5.3 4.6 5.2 3.2-.1 5.1-2.5 5-6.4l-.3-8.2Zm11.5 15.4c-4.5.2-7.2-3.2-7.3-7.8-.2-4.5 2.2-8.1 6.8-8.3a6 6 0 0 1 6 3.5l-.4-11h1.5l.8 23H672l-.3-3.4c-1 2.7-3.2 4-5.9 4Zm.1-1.3c3.7-.1 5.7-3 5.6-7-.2-3.8-2.4-6.6-6-6.4-3.7 0-5.7 3-5.5 6.9.1 3.9 2.3 6.6 6 6.5Zm17.5.7c-4.5.2-7.5-3-7.7-7.7-.1-4.8 2.6-8.2 7-8.4 4-.1 6.8 2.7 7 6.9v1l-12.5.4c.3 4.2 2.5 6.6 6.1 6.5 2.8-.1 4.4-1.4 5-3.6l1.5-.1c-.8 3.2-3 5-6.4 5Zm-.7-14.7c-3.2 0-5.3 2.3-5.5 5.7l11-.4c-.2-3.3-2.4-5.4-5.5-5.3Zm15.9 14.2c-4.5.2-7.2-3.3-7.4-7.8-.1-4.6 2.3-8.2 6.8-8.3A6 6 0 0 1 704 91l-.4-11 1.5-.1.8 23-1.2.1-.3-3.4c-1 2.6-3.3 4-5.9 4Zm.1-1.3c3.7-.2 5.7-3 5.5-7-.1-3.8-2.3-6.6-6-6.5-3.6.1-5.6 3-5.5 7 .2 3.8 2.4 6.6 6 6.5Zm12.8.8c-1 0-1.8-.7-1.8-1.6 0-1 .7-1.8 1.7-1.9 1 0 1.8.8 1.8 1.7 0 1-.7 1.8-1.7 1.8ZM309.7 161.4c-9.8.3-15.7-6-16-15-.4-12.4 7.6-21.4 18.8-21.8 8.8-.3 14.3 4.8 14.9 12.5l-8 .3c-.7-4-3.7-5.6-7.6-5.4-6.5.2-10.3 6-10 13.6.1 5.1 3 8.6 7.9 8.4 4.3-.1 7.2-1.9 8.7-6l8.2-.3c-2.4 8.7-8.3 13.4-17 13.7Zm25-1.5-7 .3 4.4-36.4 7.2-.3-1.9 15c2-2.6 3.9-3.6 6.8-3.7 5.3-.2 9.1 4.2 8.4 9.7l-1.8 14.9-7.2.2 1.7-13.1c.4-3.2-1.2-5.3-4-5.2-2.8.1-4.6 2-5 5.5l-1.6 13.1Zm31.6-.5c-7 .2-11.3-3.5-11.6-10.4-.2-8.2 5.4-14.7 13.2-15 7.4-.2 11.7 4.6 10.8 12.3l-.2 2-17 .6c.4 3.2 2 4.7 5 4.6 2.3 0 4-1.1 4.8-3l7-.2a12.8 12.8 0 0 1-12 9Zm1.4-19.5c-2.6 0-4.6 1.9-5.6 4.5l9.8-.3c.3-2.7-1.3-4.3-4.2-4.2Zm12.5 8.3c-.3-8.3 5.4-14.7 13.2-15 6.8-.3 11 3.4 11.2 9.7l-7.1.2c-.3-2.4-1.8-3.7-4.4-3.6-3.4.2-5.8 3.5-5.6 7.9 0 3.1 1.7 4.9 4.5 4.8 2.2-.1 4-1.6 4.7-4l7.3-.3c-1.2 6.2-6 10.4-12.2 10.6-7.1.3-11.4-3.5-11.6-10.3Zm32.3 9-7.1.3 4.4-36.4 7.2-.3-2.6 21 8.7-9 9-.3-10.3 10.5 6.6 13.7-7.7.2-4.3-9-3.1 3.2-.8 6.1Zm36-1.3-6.7.3 4.4-36.4 7.2-.2-1.9 15.2a9 9 0 0 1 7.4-3.9c5.7-.2 10 4.2 10.3 10.7.2 8.4-4.9 14.4-12 14.6-3.4.1-6.6-1.3-8-3.4l-.7 3.1Zm1.9-11c.1 3.2 2.1 5.2 5.2 5 3.7 0 6.6-3.4 6.4-7.6 0-3.1-2-5.1-5.1-5-3.7 0-6.7 3.5-6.5 7.6Zm27.5 10.6c-4.3.2-7.4-2.4-7.5-6.4-.2-5 3.2-8 9.6-8.8l6.7-.8v-.4c.2-2.5-1.2-3.7-4-3.6-2.7 0-4.2 1.3-4.4 3.6l-6.3.2c.7-5.7 4.8-9 11.3-9.3 7.1-.2 11 3.7 10.2 10.3l-1.8 14.1-6.2.3-.1-3.3c-1 2.4-4 4-7.5 4.1Zm2.7-5.4c3 0 5.1-1.8 5.4-4.5l.1-1.3-3.8.4c-3.5.4-4.8 1.5-4.7 3.3 0 1.4 1.1 2.2 3 2.1Zm15-6c-.2-8.2 5.5-14.7 13.3-15 6.8-.2 11 3.5 11.2 9.7l-7.2.3c-.2-2.4-1.7-3.7-4.3-3.6-3.4.1-5.8 3.5-5.6 7.8 0 3.2 1.7 5 4.5 4.8 2.2 0 4-1.5 4.7-4l7.3-.2c-1.2 6.2-6 10.4-12.2 10.6-7.1.2-11.4-3.6-11.6-10.4Zm32.4 9-7.1.3 4.4-36.3 7.2-.3-2.6 20.9 8.7-9 9-.2-10.3 10.5 6.6 13.6-7.7.3-4.3-9-3.1 3.2-.8 6Zm36.2-29c-2 0-3.5-1.4-3.6-3.4a5 5 0 0 1 4.7-4.9c2 0 3.5 1.4 3.5 3.3a5 5 0 0 1-4.6 5Zm-7 28 3-24 7.2-.3-3 24.1-7.1.3Zm18.4-.6-7.1.3 3-24.2 6.6-.2.2 2.6c2-2.5 3.9-3.5 6.8-3.6 5.3-.2 9 4.2 8.4 9.7l-1.8 14.8-7.2.3 1.6-13.1c.5-3.3-1.1-5.3-3.9-5.2-2.8.1-4.6 2-5 5.4l-1.6 13.2Zm38.1-1.3-7.1.2 4.4-36.3 7.2-.3-4.5 36.4Zm11.6.2c-4.4.2-7.4-2.4-7.6-6.4-.2-5 3.2-8.1 9.6-8.8l6.7-.9v-.4c.2-2.4-1.2-3.6-3.9-3.6-2.7.1-4.2 1.3-4.5 3.7l-6.2.2c.7-5.8 4.7-9.1 11.3-9.3 7-.3 11 3.7 10.1 10.3l-1.7 14-6.3.3v-3.2c-1 2.3-4.1 4-7.5 4.1Zm2.7-5.4c3-.1 5-1.9 5.3-4.6l.2-1.3-3.8.5c-3.6.4-4.8 1.4-4.8 3.3 0 1.4 1.2 2.1 3 2Zm24 3.8-7 .3L647 131l-4.4.1.7-6 4.5-.1.9-7.5 7.1-.2-.9 7.4 4.5-.1-.8 6-4.4.1-2.2 18.1Zm17.9 0c-7.1.2-11.4-3.5-11.6-10.4-.3-8.2 5.4-14.7 13.1-15 7.5-.2 11.8 4.6 10.8 12.3l-.2 2-17 .6c.4 3.2 2 4.7 5 4.6 2.3 0 4-1.1 4.8-3l7-.2a12.8 12.8 0 0 1-12 9Zm1.3-19.5c-2.5 0-4.6 1.9-5.6 4.5l9.8-.3c.4-2.7-1.3-4.3-4.2-4.2Zm31.4-6.3-.8 6.8h-2.3c-4.1.2-6.9 2.3-7.4 7l-1.4 10.7-7.1.2 3-24 6.7-.3v3.5c1.2-2.4 3.5-4 6.6-4.1.9 0 1.8 0 2.7.2Zm9 13.1-5.9.3c-.3-4 0-10.8.8-17l1-8 8.6-.3-1 8a96 96 0 0 1-3.5 17Zm-4.3 11.4c-2.3.1-3.7-1.2-3.8-3.4 0-2.7 2-5 4.8-5.1 2.3-.1 3.8 1.3 3.8 3.5a5 5 0 0 1-4.8 5Z"/><g clip-path="url(#b)"><path fill="#F91" d="m16.8 101-.7-3.8L63.8 57l58.7 21.3.7 3.7-47.8 40.2-58.6-21.3Z"/><path fill="#F18700" d="M96.1 79.2 67.3 14.7c-.5-1.4-1.8-2.6-3.8-3.3A17 17 0 0 0 48.4 14c-1.7 1.4-2.5 2.9-2.4 4.3L41.2 89c-1 5.6 2.5 10.8 10.3 13.6 12 4.4 30 1.2 39.7-7 6.3-5.3 7.8-11.5 4.9-16.4Z"/><path fill="#F18700" d="M96.1 79.2 67.3 14.7c-.5-1.4-1.8-2.6-3.8-3.3A17 17 0 0 0 48.4 14c-1.7 1.4-2.5 2.9-2.4 4.3L41.2 89c-1 5.6 2.5 10.8 10.3 13.6 12 4.4 30 1.2 39.7-7 6.3-5.3 7.8-11.5 4.9-16.4ZM74.8 118.5l.6 3.7-58.6-21.3-.7-3.7 58.7 21.3Z"/><path fill="#D07400" d="m74.8 118.5.6 3.7L123.2 82l-.7-3.7-47.7 40.2Z"/><path fill="#F91" d="M50 22.8c-4.6-1.7-5.3-5.6-1.6-8.7a17 17 0 0 1 15.1-2.7c4.6 1.6 5.3 5.5 1.6 8.7a17 17 0 0 1-15.2 2.7Z"/><path fill="#D07400" d="M52.7 20.5c-2.8-1-3.2-3.4-1-5.2 2.3-2 6.3-2.6 9-1.7 2.8 1 3.3 3.4 1 5.3a10.2 10.2 0 0 1-9 1.6Z"/><path fill="#E0E0E2" d="m89 63.1-10-22c-.5.8-1.2 1.5-2 2.2a34 34 0 0 1-30.2 5.4c-1-.4-2-.8-2.8-1.3l-1.6 24c1.3 1 2.9 2 4.6 2.7 11.9 5.1 29.2 2 38.5-6.9 1.4-1.3 2.5-2.7 3.4-4Z"/></g><g clip-path="url(#c)"><path fill="#F91" d="m862.2 187.5.4-3.7 57.5-24.5 49.9 37.5-.5 3.7-57.4 24.5-49.9-37.5Z"/><path fill="#F18700" d="m944.4 190-8.6-70.2c0-1.4-1-3-2.7-4.2a17 17 0 0 0-15.2-1.9c-2 .9-3.2 2.1-3.6 3.5l-25.2 66c-2.6 5.1-.8 11.2 5.8 16.1a44.8 44.8 0 0 0 40 4.9c7.6-3.2 10.9-8.7 9.5-14.2Z"/><path fill="#F18700" d="m944.4 190-8.6-70.2c0-1.4-1-3-2.7-4.2a17 17 0 0 0-15.2-1.9c-2 .9-3.2 2.1-3.6 3.5l-25.2 66c-2.6 5.1-.8 11.2 5.8 16.1a44.8 44.8 0 0 0 40 4.9c7.6-3.2 10.9-8.7 9.5-14.2ZM912.5 221.3l-.4 3.7-49.9-37.5.4-3.7 50 37.5Z"/><path fill="#D07400" d="m912.5 221.3-.4 3.7 57.4-24.5.5-3.7-57.5 24.5Z"/><path fill="#F91" d="M916.8 122.5c-3.9-3-3.4-6.9 1-8.8a17 17 0 0 1 15.3 1.9c4 2.9 3.4 6.8-1 8.8a17 17 0 0 1-15.3-1.9Z"/><path fill="#D07400" d="M920 121.1c-2.3-1.7-2-4.1.7-5.3 2.7-1.1 6.8-.6 9.2 1.1 2.3 1.8 2 4.2-.7 5.3-2.7 1.2-6.8.7-9.1-1Z"/><path fill="#E0E0E2" d="m942.3 172.5-3-23.9c-.8.5-1.7 1-2.7 1.4a34 34 0 0 1-30.4-3.7c-.8-.6-1.6-1.3-2.2-2l-8.6 22.5c1 1.3 2.1 2.7 3.6 3.9a38.3 38.3 0 0 0 38.8 4.7c1.7-.8 3.2-1.8 4.5-3Z"/></g><defs><clipPath id="b"><path fill="#fff" d="M0 20.8 111.2 1l19.9 111.2-111.3 19.9z"/></clipPath><clipPath id="c"><path fill="#fff" d="m869.6 106 112.2 13.6-13.6 112.2L856 218.2z"/></clipPath><filter id="a" width="856.6" height="246.1" x="66.7" y=".5" color-interpolation-filters="sRGB" filterUnits="userSpaceOnUse"><feFlood flood-opacity="0" result="BackgroundImageFix"/><feColorMatrix in="SourceAlpha" result="hardAlpha" values="0 0 0 0 0 0 0 0 0 0 0 0 0 0 0 0 0 0 127 0"/><feOffset dx="-9" dy="9"/><feGaussianBlur stdDeviation="2"/><feComposite in2="hardAlpha" operator="out"/><feColorMatrix values="0 0 0 0 0 0 0 0 0 0 0 0 0 0 0 0 0 0 0.05 0"/><feBlend in2="BackgroundImageFix" result="effect1_dropShadow_58_516"/><feBlend in="SourceGraphic" in2="effect1_dropShadow_58_516" result="shape"/></filter></defs></svg>