<svg xmlns="http://www.w3.org/2000/svg" width="800" height="800" fill="#60587f" viewBox="0 0 32 32"><path d="M21 20.2a2.9 2.9 0 0 1-2.7-3V17c0-1.5 1.2-2.8 2.7-2.9a2.9 2.9 0 0 1 2.7 3v.2c0 1.5-1.2 2.8-2.7 2.9zm-10 0a2.9 2.9 0 0 1-2.7-3V17c0-1.5 1.2-2.8 2.7-2.9a2.9 2.9 0 0 1 2.7 3v.2c0 1.5-1.2 2.8-2.7 2.9zM26.4 6.5a24 24 0 0 0-6-2h-.1l-.1.1-.7 1.5a22.1 22.1 0 0 0-7 0l-.7-1.6v.1h-.1c-2.3.4-4.3 1-6.3 2l.2-.1A25.1 25.1 0 0 0 1 23.7v-.1c2.2 1.6 4.7 3 7.4 3.8h.2c.6-.7 1.1-1.5 1.5-2.4l.1-.1v-.1l-2.5-1.2H8v-.1a12.9 12.9 0 0 0 .6-.4 17.5 17.5 0 0 0 15.1 0 10.6 10.6 0 0 0 .5.5c-.7.4-1.4.8-2.3 1.1l-.1.2c.5 1 1 1.8 1.6 2.5 2.9-.9 5.4-2.2 7.6-3.8L31 21a25 25 0 0 0-4.6-14.6v.1z"/></svg>