<svg xmlns="http://www.w3.org/2000/svg" width="256" height="256" fill="none"><rect width="256" height="256" fill="#5D5A88" rx="64"/><path fill="#FBE4AE" d="M29.4 155.2c-7.3 0-12.7-2-16.1-6-3.5-4.1-5.2-9.4-5.2-16 0-6.3 1.7-11.5 5.2-15.5 3.4-4 8.8-6 16-6 5 0 9 1 12.4 2.8 3.3 2 5.8 4.6 7.3 7.8 1.6 3.3 2.4 7 2.4 11 0 6.6-1.8 11.8-5.5 15.9-3.6 4-9.1 6-16.5 6Zm.2-13c2.8 0 4.9-.9 6.3-2.5 1.3-1.6 2-3.7 2-6.4 0-2.5-.7-4.5-2-6.2-1.4-1.6-3.5-2.4-6.3-2.4-2.7 0-4.8.8-6 2.4a9.6 9.6 0 0 0-2 6.2c0 2.7.7 4.8 2 6.4 1.2 1.6 3.3 2.4 6 2.4Zm41.6-46.4a1102 1102 0 0 1-.4 23.1c-.9 7.3-1.4 13.5-1.6 19H57.3c-.2-5.5-.7-11.7-1.6-19v-3.3c-.3-7.9-.4-14.5-.4-19.8h15.9Zm-.6 61.5H55.8v-13.7h14.8v13.7Zm33.2-1c-9.6 0-16.7-2.4-21.3-7.3a30 30 0 0 1-6.8-21c0-9.2 2.2-16.5 6.8-21.8 4.6-5.3 11.7-8 21.3-8 13.5 0 22.5 5.6 27 16.7-3.8 1.6-8.3 4-13.4 7.1-1.3-2.8-3.2-5-6-6.3a17.1 17.1 0 0 0-8-2.1c-4.1 0-7.2 1.3-9.2 3.9a15 15 0 0 0-3 9.5c0 4.1 1 7.5 3.2 10 2.2 2.6 5.5 3.9 10 3.9a15 15 0 0 0 8.4-2.1c2-1.4 3.6-3.7 4.6-6.7 3.5 2.2 8 4.8 13.4 7.6a21.5 21.5 0 0 1-10.7 13c-5 2.4-10.4 3.7-16.3 3.7Zm69.7-28.5c9.8 0 14.6 3.7 14.6 11.1 0 3.5-.6 6.5-2 9a13.2 13.2 0 0 1-7 5.6c-3.5 1.4-8.2 2-14.3 2H136a817 817 0 0 0 0-55.8h15v.2h13.7c5.3 0 9.5.5 12.5 1.6 3 1 5.2 2.5 6.4 4.5 1.3 2 2 4.5 2 7.6 0 3.1-1 6-2.8 8.4a18.3 18.3 0 0 1-9.3 5.8Zm-22.4-14v7.2h12.3c2.6 0 4.4-.3 5.5-.8 1-.6 1.6-1.7 1.6-3.2 0-1.1-.6-2-1.7-2.4-1-.5-2.9-.8-5.4-.8H151Zm12.3 27.7c2.2 0 3.9-.1 5-.3 1.2-.3 2-.7 2.6-1.3.5-.6.7-1.4.7-2.4a3 3 0 0 0-1.8-2.9c-1.2-.6-3.4-.9-6.5-.9H151v7.8h12.3Zm29.8 7.5a75 75 0 0 0 6.4-15.1 40.7 40.7 0 0 0 21.8 6.7c3.5 0 6-.5 7.5-1.2 1.4-.7 2.1-1.5 2.1-2.4 0-3.1-4-4.7-11.9-4.7-8.7 0-15-1-19-3.2-3.8-2.2-5.8-5.7-5.8-10.6 0-7 2.4-12 7.2-15.3 4.8-3.3 11-5 18.6-5a50.2 50.2 0 0 1 26.3 7.6 170 170 0 0 0-4.5 14.7 38.8 38.8 0 0 0-21.5-7.4c-4.1 0-6.8.4-8.2 1-1.4.7-2.2 1.6-2.2 2.9 0 1.2 1 2.2 3 3 1.9.7 4.7 1 8.4 1 9 0 15.6 1.3 19.7 3.8 4 2.4 6.1 6.2 6.1 11.4 0 7.1-2.1 12.3-6.5 15.4-4.3 3.2-11 4.8-19.8 4.8a59 59 0 0 1-14.4-1.9 48 48 0 0 1-13.3-5.5Z"/></svg>