<svg width="1440" height="906" viewBox="0 0 1440 906" fill="none" xmlns="http://www.w3.org/2000/svg">
<g clip-path="url(#clip0_7_625)">
<path fill-rule="evenodd" clip-rule="evenodd" d="M0 906C217.436 829.249 622.364 658.333 799.571 479.545C871.224 407.252 911.104 336.274 947.356 271.754C1022.18 138.586 1081.54 32.9271 1372.92 1.42167e-06L1440 0V906H0Z" fill="url(#paint0_linear_7_625)"/>
<path fill-rule="evenodd" clip-rule="evenodd" d="M1440 39.67C1187.17 68.4759 850.998 124.458 675.29 212.956C587.326 257.259 534.024 306.581 485.571 351.416C387.099 442.534 308.657 515.118 1.83018e-05 489.374L7.94918e-05 2.03386e-05L1440 3.40782e-05L1440 39.67Z" fill="#F8E5B0"/>
</g>
<defs>
<linearGradient id="paint0_linear_7_625" x1="720" y1="0" x2="720" y2="906" gradientUnits="userSpaceOnUse">
<stop stop-color="#F99CBD"/>
<stop offset="0.6" stop-color="#F99CBD" stop-opacity="0.2"/>
<stop offset="0.7" stop-color="#F99CBD" stop-opacity="0"/>
</linearGradient>
<clipPath id="clip0_7_625">
<rect width="1440" height="906" fill="white"/>
</clipPath>
</defs>
</svg>
