<svg xmlns="http://www.w3.org/2000/svg" width="1000" height="1000" fill="none"><path fill="#736998" d="M780.1 365c12.7 0 21.4 9.4 21.4 22.5v120.8c0 13-8.7 22.5-21.4 22.5-13 0-21.4-9.4-21.4-22.5V387.5c0-13 8.4-22.5 21.4-22.5Zm0 242.7a27.7 27.7 0 1 1 0-55.5 27.7 27.7 0 1 1 0 55.5ZM702 423.4c13 0 21.4 9.4 21.4 22.1v80.2c0 59.1-36.5 82-80.7 82-44.7 0-81.1-22.9-81.1-82v-80.2c0-12.7 8.3-22 21.4-22 12.7 0 21.4 9.3 21.4 22v77.3c0 32.3 13.6 45 38.3 45 24.3 0 37.9-12.7 37.9-45v-77.3c0-12.7 8.7-22 21.4-22ZM440.2 472.4c0 12 12.3 16.3 36 21.7 32.6 8 63.8 16.4 63.8 56.6 0 39.2-29 57-70.8 57-34.4 0-59.5-12-71-25.8-9.2-10.8-8-20.3.6-28.6 11-10.5 20.4-6.2 26.5-.7a60 60 0 0 0 45 18.5c17.4 0 28.3-5.9 28.3-17.5s-11.6-15.6-42-23.9c-30.2-8.3-57-16.3-57-52.2 0-40.3 32.6-57 68.9-57 20.7 0 44.3 5.4 58.8 21 6.1 6.2 10.8 15 0 26.9-11 11.2-18.9 8-26.5 2.2a59.9 59.9 0 0 0-37-13.8c-12.4 0-23.6 4-23.6 15.6ZM281.8 607.7c-52.3 0-89.8-40-89.8-93.9 0-54.2 37.5-93.9 89.8-93.9s89.8 39.7 89.8 93.9c0 53.9-37.5 93.9-89.8 93.9Zm0-40c30.3 0 49.2-23.3 49.2-53.9 0-30.6-18.9-54.2-49.2-54.2-30.3 0-49.2 23.6-49.2 54.2s19 53.9 49.2 53.9Z"/><path fill="#736998" d="M950 500a450 450 0 1 1-900 0 450 450 0 0 1 900 0Zm-855 0a405 405 0 1 0 810 0 405 405 0 0 0-810 0Z"/><style xmlns="http://www.w3.org/1999/xhtml" id="m40dhswo.5bf">.toast,.toast.show{transition:opacity .5s ease,transform .5s ease}.toast{position:fixed;top:20px;right:20px;background-color:hsl(var(--hsl-d5));color:#736998;padding:15px;border-radius:5px;box-shadow:0 2px 10px rgba(0,0,0,.1);opacity:0;transform:translateY(-80px);z-index:9999}.toast.show{opacity:1;transform:translateY(0)}.beatmap-basic-stats{color:#fd5;display:flex;font-size:11px;font-weight:600;justify-content:space-between;box-sizing:border-box;gap:2px}.beatmap-basic-stats__entry{align-items:center;display:flex;flex:none;padding:3px;box-sizing:border-box}</style></svg>