<svg xmlns="http://www.w3.org/2000/svg" width="982" height="247" fill="none"><g filter="url(#a)"><path fill="#F8E5B0" d="M79.7 29.2 916.2 0l7.1 203.9L86.8 233z"/></g><path fill="#5C5790" d="M315.5 94.7v-1.4l15.7-.5.1 1.4-7.1.2.7 21.3h-1.5l-.8-21.2-7.1.2Zm19.8 20.6h-1.5l-.8-23h1.5l.4 10.7a6 6 0 0 1 5.5-3.6c4.1-.1 5.9 2.4 6 6.2l.3 9.4h-1.4l-.3-9c-.2-4.1-2-5.3-4.7-5.2-3.7.1-5.4 3-5.3 6.2l.3 8.3Zm15.2-20.6c-.8 0-1.4-.5-1.4-1.2 0-.8.6-1.4 1.3-1.4.7 0 1.4.6 1.4 1.3 0 .7-.6 1.3-1.3 1.3Zm0 20.1-.6-15.3h1.5l.5 15.3h-1.5Zm3.8-4.3h1.4c.1 2 1.6 3.1 4 3 2.6 0 4.1-1.3 4-3.1 0-1.5-.7-2.3-2.7-2.7l-2.7-.6c-2.6-.6-3.9-2-4-3.9 0-2.6 2-4.3 5.2-4.4 3.1-.2 5.2 1.5 5.4 4.3h-1.5c-.1-2-1.6-3-3.9-3-2.5 0-3.8 1.2-3.7 3 0 1.4 1 2.3 2.9 2.7l2.5.5c2.7.7 4 1.9 4 4 .1 2.6-2 4.5-5.4 4.6-3.3.1-5.4-1.6-5.5-4.4Zm22.3 10-.8-22h1.2l.4 3.5c1-2.7 3.2-4 5.8-4 4.5-.2 7.2 3.2 7.4 7.7.1 4.6-2.3 8.2-6.8 8.3a6 6 0 0 1-6-3.5l.3 9.9h-1.5Zm1-14.3c.1 3.9 2.3 6.6 6 6.5 3.6-.1 5.6-3 5.5-7-.2-3.8-2.3-6.5-6-6.4-3.7.1-5.6 3-5.5 6.9Zm20.4 7.4c-3.3 0-5.3-1.7-5.4-4.3 0-2.8 2-4.7 5.6-5.1l5.3-.6v-.6c-.2-3.4-2.2-4.4-4.7-4.3-2.8.1-4.5 1.5-4.4 3.8H393c0-3 2.3-5 6-5.1 3.2-.1 5.9 1.4 6 5.3l.4 10.2H404l-.4-2.8c-1 2.1-3 3.4-5.7 3.5Zm.1-1.4c3.6 0 5.6-2.8 5.5-6.6v-.8l-5.2.6c-3.1.4-4.4 2-4.3 3.8 0 2.1 1.7 3.1 4 3Zm9.4-7.5c0-4 2.4-7.7 7-7.9 2.8 0 5 1.3 6.1 3.8V97h1.2l.6 15c.1 4.3-2.6 7.3-7 7.4-3.6.1-6.3-1.8-7.1-5.3h1.4c.7 2.6 2.8 4 5.8 4 3.4-.2 5.6-2.6 5.4-6l-.1-4.2c-1 2.5-3.2 4-6 4.1-4.4.2-7.1-3.3-7.3-7.3Zm1.6 0c0 3.3 2.2 6 5.8 6 3.6-.2 5.6-2.9 5.5-6.5-.1-3.6-2.2-6.1-6-6-3.6.1-5.5 3-5.3 6.4Zm23.4 7.6c-4.4.2-7.5-2.9-7.6-7.7-.2-4.8 2.6-8.2 6.9-8.4 4-.1 6.8 2.7 7 6.9v1l-12.5.4c.3 4.2 2.6 6.6 6.2 6.5 2.7 0 4.4-1.3 5-3.6h1.4c-.8 3.1-2.9 4.8-6.4 5Zm-.7-14.7c-3.1 0-5.2 2.3-5.5 5.7l11-.4c-.1-3.3-2.3-5.4-5.5-5.3Zm18-6.3c-.7 0-1.3-.6-1.3-1.3 0-.7.5-1.4 1.3-1.4.7 0 1.3.6 1.4 1.3 0 .7-.6 1.4-1.3 1.4Zm0 20-.5-15.3h1.5l.5 15.3h-1.5Zm3.9-4.2h1.4c.1 1.9 1.6 3 4 3 2.6-.1 4.1-1.3 4-3.2 0-1.5-.8-2.3-2.8-2.7l-2.6-.6c-2.6-.6-4-2-4-3.9 0-2.5 2-4.3 5.1-4.4 3.2-.1 5.3 1.5 5.5 4.3h-1.5c-.2-2-1.6-3-3.9-3-2.5.1-3.8 1.2-3.7 3 0 1.4 1 2.3 2.8 2.7l2.6.6c2.7.6 4 1.8 4 4 .1 2.6-2 4.4-5.4 4.5-3.3.1-5.4-1.6-5.5-4.3Zm23.5 3.3h-1.5l-.5-15.3h1.2l.4 3a6 6 0 0 1 5.3-3.6c4.4-.2 6.1 2.3 6.2 6.2l.4 9.3h-1.5l-.3-9c-.2-4-2-5.3-4.7-5.2-3.5.1-5.4 2.8-5.3 6.7l.3 7.9Zm13.8-8.2c-.2-4.6 2.9-8.1 7.3-8.3 4.4-.1 7.7 3.2 7.9 7.8.1 4.6-3 8.2-7.4 8.3-4.3.2-7.7-3.1-7.9-7.8Zm1.5 0c0 4 2.7 6.6 6.3 6.5 3.6-.1 6-3 5.9-7-.2-3.9-2.8-6.6-6.4-6.4-3.6 0-6 3-5.8 6.9Zm19.3 7h-1.5l-.5-14h-3l-.1-1.2 3.1-.1-.2-4.9h1.5l.2 4.8h3l.1 1.2-3 .1.4 14Zm11.8-8c-.2-4.9 2.6-8.3 7-8.4a6.3 6.3 0 0 1 6.7 4.6h-1.6c-.7-2.2-2.8-3.4-5-3.3-3.5.1-5.8 2.8-5.6 7 0 4 2.4 6.6 5.8 6.5 2.5-.1 4.5-1.6 5.1-3.7h1.5c-.7 2.9-3.2 4.9-6.5 5-4.2.2-7.2-3-7.4-7.7Zm15.3-.6c-.2-4.7 3-8.2 7.3-8.4 4.4-.1 7.7 3.2 7.9 7.8.1 4.7-3 8.2-7.3 8.4-4.4.1-7.8-3.2-8-7.8Zm1.5 0c.1 3.8 2.7 6.5 6.3 6.4 3.6-.1 6-3 5.9-7-.2-3.8-2.8-6.5-6.4-6.4-3.5.1-6 3-5.8 7Zm18.2 7H557l-.5-15.3h1.1l.3 2.3c.8-1.8 2.5-2.9 4.7-3 2.4 0 4.3 1.3 5 3.3.7-2 2.5-3.5 5-3.6 3.2-.1 5.6 2 5.7 5.5l.3 10-1.4.1-.3-9.8c-.1-2.9-1.8-4.5-4.3-4.4-3 0-4.5 2.4-4.4 4.7l.4 9.8h-1.5l-.3-9.8c-.1-2.8-1.8-4.5-4.3-4.4-3 .1-4.5 2.4-4.4 4.7l.4 9.9Zm24 5.6-.7-21.8h1.2l.4 3.4c1-2.7 3.2-4 5.8-4 4.5-.2 7.2 3.2 7.4 7.7.1 4.6-2.3 8.2-6.8 8.3a6 6 0 0 1-6-3.5l.3 9.9h-1.5Zm1.1-14.2c.1 3.9 2.3 6.6 6 6.5 3.6-.1 5.6-3 5.5-6.9-.2-4-2.3-6.6-6-6.5-3.7.1-5.6 3-5.5 6.9Zm17.6 7-1.5.1-.8-23 1.5-.1.8 23Zm10.3 0c-4.5.2-7.5-2.8-7.7-7.7-.1-4.8 2.6-8.2 7-8.3 4-.2 6.8 2.6 7 6.8v1l-12.5.5c.3 4.2 2.5 6.6 6.1 6.4 2.8 0 4.4-1.3 5-3.6h1.5c-.8 3.2-3 4.9-6.4 5Zm-.7-14.7c-3.2.1-5.3 2.4-5.5 5.8l11-.4c-.2-3.4-2.4-5.5-5.5-5.4Zm12.6 14H622l-.5-14h-3l-.1-1.2 3-.1V85h1.4l.2 4.8h3l.1 1.2-3.1.1.5 14Zm11.3 0c-4.4.1-7.5-3-7.7-7.8-.1-4.8 2.7-8.2 7-8.3 4-.2 6.8 2.6 7 6.8v1l-12.5.5c.3 4.1 2.5 6.6 6.2 6.4 2.7 0 4.4-1.3 4.9-3.6h1.5c-.8 3.2-3 4.9-6.4 5Zm-.7-14.8c-3.1.1-5.3 2.4-5.5 5.7l11-.3c-.2-3.4-2.3-5.5-5.5-5.4Zm16.6 20.3v-1.1h1.4c1.2-.1 2.7-.2 3.5-2.4l.7-2-6.9-16.3h1.6l5.9 14.2 4.7-14.6h1.5l-6.2 19c-.7 2.3-2 3.3-4.2 3.4-.8 0-1.4 0-2-.2Zm20.5-6.8c-4.5.2-7.5-3-7.7-7.8-.1-4.8 2.6-8.2 7-8.3 4-.1 6.8 2.6 7 6.8v1l-12.5.5c.3 4.2 2.5 6.6 6.1 6.5 2.8-.1 4.4-1.4 5-3.7h1.5c-.8 3.2-3 4.9-6.4 5Zm-.7-14.8c-3.2.2-5.3 2.4-5.5 5.8l11-.4c-.2-3.3-2.4-5.5-5.5-5.4Zm12.6 14h-1.5l-.5-14-3 .1-.1-1.3h3v-5h1.4l.2 4.9 3-.1.1 1.2-3 .1.4 14.1Zm5.8.2c-1 0-1.8-.8-1.8-1.7 0-1 .7-1.8 1.7-1.8s1.8.7 1.8 1.7c0 .9-.7 1.7-1.7 1.8ZM309.7 160.8c-9.8.4-15.7-6-16-15-.4-12.4 7.6-21.4 18.8-21.8 8.8-.3 14.3 4.8 14.9 12.5l-8 .3c-.7-3.9-3.7-5.5-7.6-5.4-6.5.2-10.3 6-10 13.6.1 5.2 3 8.7 7.9 8.5 4.3-.2 7.2-1.9 8.7-6l8.2-.4c-2.4 8.7-8.3 13.4-17 13.7Zm25-1.4-7 .2 4.4-36.3 7.2-.3-1.9 14.9c2-2.5 3.9-3.5 6.8-3.6 5.3-.2 9.1 4.2 8.4 9.7l-1.8 14.8-7.2.3 1.7-13.2c.4-3.2-1.2-5.2-4-5.1-2.8.1-4.6 2-5 5.4l-1.6 13.2Zm31.6-.5c-7 .2-11.3-3.6-11.6-10.4-.2-8.3 5.4-14.7 13.2-15 7.4-.2 11.7 4.6 10.8 12.3l-.2 1.9-17 .7c.4 3.2 2 4.7 5 4.6 2.3 0 4-1.2 4.8-3l7-.2a12.8 12.8 0 0 1-12 9Zm1.4-19.5c-2.6 0-4.6 1.8-5.6 4.5l9.8-.4c.3-2.6-1.3-4.2-4.2-4.1Zm12.5 8.2c-.3-8.2 5.4-14.7 13.2-15 6.8-.2 11 3.5 11.2 9.7l-7.1.3c-.3-2.4-1.8-3.7-4.4-3.6-3.4.1-5.8 3.5-5.6 7.8 0 3.2 1.7 5 4.5 4.8 2.2 0 4-1.5 4.7-4l7.3-.2c-1.2 6.1-6 10.3-12.2 10.6-7.1.2-11.4-3.6-11.6-10.4Zm32.3 9-7.1.3 4.4-36.4 7.2-.2-2.6 20.9 8.7-9 9-.2-10.3 10.5 6.6 13.6-7.7.3-4.3-9-3.1 3.2-.8 6Zm36-1.2-6.7.2 4.4-36.3 7.2-.3-1.9 15.2a9 9 0 0 1 7.4-3.8c5.7-.2 10 4.1 10.3 10.6.2 8.5-4.9 14.4-12 14.7-3.4.1-6.6-1.4-8-3.5l-.7 3.2Zm1.9-11c.1 3.1 2.1 5.2 5.2 5 3.7 0 6.6-3.5 6.4-7.6 0-3.1-2-5.2-5.1-5-3.7 0-6.7 3.4-6.5 7.6Zm27.5 10.6c-4.3.2-7.4-2.4-7.5-6.4-.2-5 3.2-8 9.6-8.8l6.7-.9v-.4c.2-2.4-1.2-3.6-4-3.6-2.7.1-4.2 1.4-4.4 3.7l-6.3.2c.7-5.8 4.8-9.1 11.3-9.3 7.1-.3 11 3.7 10.2 10.3l-1.8 14.1-6.2.2-.1-3.2c-1 2.3-4 4-7.5 4.1Zm2.7-5.4c3-.1 5.1-1.9 5.4-4.6l.1-1.3-3.8.5c-3.5.4-4.8 1.5-4.7 3.3 0 1.4 1.1 2.1 3 2Zm15-6c-.2-8.3 5.5-14.7 13.3-15 6.8-.2 11 3.4 11.2 9.7l-7.2.3c-.2-2.4-1.7-3.7-4.3-3.6-3.4 0-5.8 3.4-5.6 7.8 0 3.2 1.7 4.9 4.5 4.8 2.2 0 4-1.5 4.7-4l7.3-.2c-1.2 6.1-6 10.3-12.2 10.5-7.1.3-11.4-3.5-11.6-10.3Zm32.4 9-7.1.3 4.4-36.4 7.2-.2-2.6 20.8 8.7-8.9 9-.3-10.3 10.5 6.6 13.7-7.7.2-4.3-9-3.1 3.3-.8 6Zm36.2-29c-2 0-3.5-1.5-3.6-3.4a5 5 0 0 1 4.7-5c2 0 3.5 1.4 3.5 3.4a5 5 0 0 1-4.6 5Zm-7 28 3-24.1 7.2-.3-3 24.2-7.1.2Zm18.4-.6-7.1.2 3-24.1 6.6-.2.2 2.6c2-2.5 3.9-3.5 6.8-3.6 5.3-.2 9 4.2 8.4 9.7l-1.8 14.8-7.2.3 1.6-13.2c.5-3.2-1.1-5.2-3.9-5.1-2.8 0-4.6 2-5 5.4l-1.6 13.2Zm38.1-1.4-7.1.3 4.4-36.4 7.2-.2-4.5 36.3Zm11.6.3c-4.4.1-7.4-2.5-7.6-6.5-.2-5 3.2-8 9.6-8.8l6.7-.8v-.4c.2-2.4-1.2-3.7-3.9-3.6-2.7.1-4.2 1.3-4.5 3.6l-6.2.2c.7-5.7 4.7-9 11.3-9.3 7-.2 11 3.8 10.1 10.3l-1.7 14.2-6.3.2v-3.2c-1 2.3-4.1 4-7.5 4Zm2.7-5.5c3 0 5-1.8 5.3-4.5l.2-1.3-3.8.4c-3.6.5-4.8 1.5-4.8 3.3 0 1.4 1.2 2.2 3 2.1Zm24 3.9-7 .2 2.1-18h-4.4l.7-6h4.5l.9-7.5 7.1-.2-.9 7.4 4.5-.2-.8 6-4.4.2-2.2 18.1Zm17.9 0c-7.1.2-11.4-3.6-11.6-10.4-.3-8.3 5.4-14.7 13.1-15 7.5-.2 11.8 4.6 10.8 12.3l-.2 1.9-17 .7c.4 3.2 2 4.7 5 4.6 2.3 0 4-1.2 4.8-3l7-.2a12.8 12.8 0 0 1-12 9Zm1.3-19.5c-2.5 0-4.6 1.8-5.6 4.5l9.8-.4c.4-2.6-1.3-4.2-4.2-4.1Zm31.4-6.3-.8 6.7-2.3.1c-4.1.1-6.9 2.2-7.4 7l-1.4 10.6-7.1.3 3-24.1 6.7-.3v3.6c1.2-2.4 3.5-4 6.6-4.2.9 0 1.8 0 2.7.3Zm9 13.1-5.9.2c-.3-4 0-10.8.8-16.9l1-8 8.6-.4-1 8.1a96 96 0 0 1-3.5 17Zm-4.3 11.4c-2.3 0-3.7-1.3-3.8-3.5 0-2.7 2-5 4.8-5 2.3-.2 3.8 1.2 3.8 3.4a5 5 0 0 1-4.8 5Z"/><g clip-path="url(#b)"><path fill="#F91" d="m16.8 100.4-.7-3.7 47.7-40.2 58.7 21.2.7 3.7-47.8 40.2-58.6-21.2Z"/><path fill="#F18700" d="M96.1 78.7 67.3 14c-.5-1.4-1.8-2.5-3.8-3.3a17 17 0 0 0-15.1 2.7c-1.7 1.4-2.5 3-2.4 4.4l-4.8 70.6c-1 5.5 2.5 10.8 10.3 13.6 12 4.4 30 1.2 39.7-7 6.3-5.4 7.8-11.5 4.9-16.4Z"/><path fill="#F18700" d="M96.1 78.7 67.3 14c-.5-1.4-1.8-2.5-3.8-3.3a17 17 0 0 0-15.1 2.7c-1.7 1.4-2.5 3-2.4 4.4l-4.8 70.6c-1 5.5 2.5 10.8 10.3 13.6 12 4.4 30 1.2 39.7-7 6.3-5.4 7.8-11.5 4.9-16.4ZM74.8 118l.6 3.6-58.6-21.2-.7-3.7 58.7 21.2Z"/><path fill="#D07400" d="m74.8 118 .6 3.6 47.8-40.2-.7-3.7L74.8 118Z"/><path fill="#F91" d="M50 22.2c-4.6-1.6-5.3-5.5-1.6-8.7a17 17 0 0 1 15.1-2.7c4.6 1.7 5.3 5.6 1.6 8.7a17 17 0 0 1-15.2 2.7Z"/><path fill="#D07400" d="M52.7 20c-2.8-1-3.2-3.4-1-5.3 2.3-1.9 6.3-2.6 9-1.6 2.8 1 3.3 3.4 1 5.2a10.2 10.2 0 0 1-9 1.7Z"/><path fill="#E0E0E2" d="m89 62.6-9.9-22-2.1 2.1a34 34 0 0 1-30.2 5.4L44 47l-1.6 24c1.3 1 2.9 1.9 4.6 2.6 11.9 5.2 29.2 2.1 38.5-6.8C87 65.4 88 64 89 62.6Z"/></g><g clip-path="url(#c)"><path fill="#F91" d="m862.2 187 .4-3.8 57.5-24.4 49.9 37.5-.5 3.7-57.4 24.4-50-37.5Z"/><path fill="#F18700" d="m944.4 189.5-8.6-70.2c0-1.5-1-3-2.7-4.3a17 17 0 0 0-15.2-1.8c-2 .8-3.2 2-3.6 3.5l-25.2 66c-2.6 5-.8 11.1 5.8 16a44.8 44.8 0 0 0 40 5c7.6-3.3 10.9-8.7 9.5-14.2Z"/><path fill="#F18700" d="m944.4 189.5-8.6-70.2c0-1.5-1-3-2.7-4.3a17 17 0 0 0-15.2-1.8c-2 .8-3.2 2-3.6 3.5l-25.2 66c-2.6 5-.8 11.1 5.8 16a44.8 44.8 0 0 0 40 5c7.6-3.3 10.9-8.7 9.5-14.2ZM912.5 220.8l-.4 3.6-50-37.5.5-3.7 50 37.6Z"/><path fill="#D07400" d="m912.5 220.8-.4 3.6 57.4-24.4.5-3.7-57.5 24.5Z"/><path fill="#F91" d="M916.8 122c-3.9-3-3.4-7 1-8.8a17 17 0 0 1 15.3 1.8c4 3 3.4 7-1 8.8a17 17 0 0 1-15.3-1.8Z"/><path fill="#D07400" d="M920 120.6c-2.3-1.8-2-4.2.7-5.3 2.7-1.2 6.8-.7 9.2 1.1 2.3 1.8 2 4.1-.7 5.3-2.7 1.1-6.8.6-9.1-1.1Z"/><path fill="#E0E0E2" d="m942.3 172-3-24c-.8.6-1.7 1-2.7 1.5a34 34 0 0 1-30.4-3.7c-.8-.7-1.6-1.3-2.2-2l-8.6 22.5c1 1.3 2.1 2.6 3.6 3.9a38.3 38.3 0 0 0 38.8 4.7c1.7-.9 3.2-1.9 4.5-3Z"/></g><defs><clipPath id="b"><path fill="#fff" d="M0 20.3 111.2.5l19.9 111.2-111.3 19.8z"/></clipPath><clipPath id="c"><path fill="#fff" d="M869.6 105.5 981.8 119l-13.6 112.2L856 217.6z"/></clipPath><filter id="a" width="856.6" height="246.1" x="66.7" y="0" color-interpolation-filters="sRGB" filterUnits="userSpaceOnUse"><feFlood flood-opacity="0" result="BackgroundImageFix"/><feColorMatrix in="SourceAlpha" result="hardAlpha" values="0 0 0 0 0 0 0 0 0 0 0 0 0 0 0 0 0 0 127 0"/><feOffset dx="-9" dy="9"/><feGaussianBlur stdDeviation="2"/><feComposite in2="hardAlpha" operator="out"/><feColorMatrix values="0 0 0 0 0 0 0 0 0 0 0 0 0 0 0 0 0 0 0.05 0"/><feBlend in2="BackgroundImageFix" result="effect1_dropShadow_122_251"/><feBlend in="SourceGraphic" in2="effect1_dropShadow_122_251" result="shape"/></filter></defs></svg>