<svg width="982" height="247" viewBox="0 0 982 247" fill="none" xmlns="http://www.w3.org/2000/svg">
<g filter="url(#filter0_d_122_251)">
<rect x="79.6904" y="29.2109" width="837" height="204" transform="rotate(-2 79.6904 29.2109)" fill="#F8E5B0"/>
</g>
<path d="M315.498 94.7226L315.449 93.3154L331.248 92.7637L331.297 94.1709L324.165 94.4199L324.909 115.719L323.374 115.773L322.63 94.4735L315.498 94.7226ZM335.291 115.324L333.82 115.376L333.015 92.3178L334.486 92.2664L334.86 102.98C335.782 100.962 337.653 99.5203 340.371 99.4254C344.497 99.2813 346.281 101.781 346.415 105.618L346.741 114.957L345.27 115.008L344.954 105.957C344.812 101.896 342.945 100.68 340.322 100.772C336.644 100.9 334.888 103.779 335.001 107.009L335.291 115.324ZM350.48 94.7497C349.744 94.7754 349.116 94.189 349.091 93.4854C349.065 92.7499 349.651 92.0891 350.386 92.0634C351.09 92.0388 351.752 92.6561 351.777 93.3916C351.802 94.0952 351.183 94.7252 350.48 94.7497ZM350.445 114.827L349.909 99.4766L351.38 99.4252L351.916 114.776L350.445 114.827ZM354.305 110.53L355.744 110.48C355.813 112.462 357.327 113.626 359.693 113.544C362.284 113.453 363.842 112.246 363.777 110.359C363.724 108.856 362.962 108.114 360.961 107.672L358.347 107.091C355.701 106.511 354.403 105.083 354.337 103.196C354.247 100.638 356.299 98.8692 359.465 98.7586C362.631 98.6481 364.673 100.274 364.866 103.053L363.427 103.103C363.262 101.124 361.815 100.021 359.512 100.102C357.049 100.188 355.742 101.258 355.808 103.145C355.854 104.456 356.782 105.352 358.653 105.767L361.235 106.349C363.946 106.959 365.173 108.165 365.248 110.308C365.339 112.93 363.162 114.767 359.804 114.885C356.542 114.999 354.402 113.312 354.305 110.53ZM376.588 120.414L375.825 98.5715L377.009 98.5302L377.353 101.976C378.413 99.3137 380.577 98.0214 383.231 97.9287C387.741 97.7712 390.422 101.2 390.58 105.741C390.739 110.282 388.303 113.889 383.794 114.047C381.076 114.142 378.923 113 377.716 110.545L378.059 120.363L376.588 120.414ZM377.596 106.194C377.731 110.064 379.91 112.838 383.587 112.709C387.233 112.582 389.212 109.663 389.077 105.793C388.941 101.892 386.764 99.1501 383.118 99.2774C379.441 99.4059 377.46 102.293 377.596 106.194ZM397.972 113.552C394.678 113.667 392.728 111.91 392.636 109.287C392.538 106.473 394.65 104.606 398.222 104.193L403.484 103.593L403.464 103.018C403.343 99.5638 401.262 98.6438 398.831 98.7287C395.985 98.8281 394.337 100.23 394.415 102.469L392.944 102.52C392.839 99.5143 395.203 97.5106 398.817 97.3844C402.111 97.2694 404.789 98.7768 404.927 102.742L405.282 112.912L404.099 112.954L403.711 110.085C402.728 112.201 400.627 113.459 397.972 113.552ZM398.118 112.234C401.732 112.108 403.687 109.414 403.556 105.64L403.527 104.809L398.392 105.404C395.299 105.768 394.04 107.317 394.106 109.204C394.18 111.315 395.816 112.314 398.118 112.234ZM407.548 104.668C407.406 100.607 409.906 96.9972 414.447 96.8386C417.293 96.7392 419.485 98.0715 420.598 100.594L420.664 97.0057L421.848 96.9644L422.373 111.995C422.522 116.281 419.776 119.258 415.491 119.408C411.781 119.537 409.054 117.551 408.292 114.056L409.731 114.006C410.4 116.672 412.534 118.166 415.476 118.064C418.866 117.945 421.055 115.531 420.933 112.045L420.788 107.888C419.819 110.387 417.599 111.906 414.816 112.003C410.403 112.157 407.69 108.73 407.548 104.668ZM409.051 104.616C409.169 108.006 411.315 110.78 414.865 110.656C418.511 110.529 420.529 107.801 420.403 104.187C420.279 100.637 418.171 98.0534 414.494 98.1818C410.848 98.3091 408.934 101.258 409.051 104.616ZM432.544 112.344C428.099 112.5 425.045 109.404 424.876 104.575C424.709 99.7783 427.504 96.3826 431.789 96.233C435.787 96.0934 438.638 98.8756 438.784 103.065L438.82 104.088L426.347 104.524C426.622 108.709 428.883 111.127 432.497 111.001C435.216 110.906 436.901 109.663 437.43 107.371L438.933 107.318C438.148 110.516 435.998 112.224 432.544 112.344ZM431.836 97.5762C428.702 97.6856 426.572 99.9373 426.337 103.308L437.274 102.926C437.158 99.5997 435.002 97.4656 431.836 97.5762ZM449.864 91.2792C449.129 91.3049 448.5 90.7184 448.475 90.0149C448.45 89.2793 449.035 88.6185 449.771 88.5928C450.474 88.5682 451.136 89.1855 451.162 89.9211C451.186 90.6246 450.568 91.2546 449.864 91.2792ZM449.829 111.357L449.293 96.006L450.764 95.9546L451.3 111.305L449.829 111.357ZM453.689 107.059L455.128 107.009C455.198 108.992 456.711 110.156 459.078 110.073C461.668 109.983 463.227 108.775 463.161 106.889C463.108 105.386 462.346 104.644 460.345 104.201L457.732 103.62C455.086 103.04 453.787 101.613 453.721 99.7257C453.632 97.1673 455.683 95.3986 458.849 95.288C462.016 95.1775 464.058 96.8032 464.251 99.5821L462.812 99.6324C462.646 97.653 461.199 96.5508 458.896 96.6312C456.434 96.7172 455.126 97.7875 455.192 99.6743C455.238 100.986 456.166 101.882 458.038 102.297L460.619 102.879C463.33 103.489 464.557 104.695 464.632 106.837C464.724 109.46 462.546 111.297 459.188 111.414C455.926 111.528 453.786 109.842 453.689 107.059ZM477.217 110.4L475.746 110.452L475.21 95.101L476.393 95.0596L476.817 98.0227C477.765 95.8442 479.833 94.5553 482.136 94.4748C486.485 94.323 488.206 96.8244 488.34 100.662L488.666 110L487.195 110.052L486.879 101.001C486.737 96.9398 484.933 95.722 482.151 95.8191C478.665 95.9409 476.805 98.5994 476.94 102.469L477.217 110.4ZM490.95 102.236C490.788 97.5988 493.899 94.0641 498.28 93.9111C502.661 93.7581 506.011 97.0672 506.173 101.704C506.335 106.342 503.224 109.876 498.843 110.029C494.461 110.182 491.112 106.873 490.95 102.236ZM492.453 102.183C492.59 106.117 495.214 108.811 498.796 108.686C502.378 108.561 504.807 105.69 504.67 101.757C504.532 97.8233 501.909 95.1292 498.327 95.2543C494.745 95.3794 492.316 98.2499 492.453 102.183ZM511.806 109.192L510.335 109.244L509.844 95.1723L506.742 95.2806L506.697 94.0014L509.799 93.8931L509.63 89.032L511.101 88.9806L511.27 93.8417L514.373 93.7334L514.417 95.0126L511.315 95.1209L511.806 109.192ZM523.615 101.159C523.445 96.2983 526.209 92.9358 530.623 92.7817C533.917 92.6666 536.447 94.5314 537.253 97.4171L535.749 97.4696C535.031 95.2213 532.939 94.0136 530.669 94.0929C527.247 94.2124 524.908 96.9196 525.053 101.077C525.191 105.043 527.525 107.683 530.947 107.563C533.409 107.477 535.407 105.999 536.038 103.895L537.541 103.843C536.811 106.782 534.256 108.793 530.994 108.907C526.772 109.054 523.782 105.956 523.615 101.159ZM538.862 100.563C538.7 95.9257 541.811 92.391 546.192 92.238C550.573 92.085 553.923 95.3941 554.085 100.031C554.247 104.668 551.136 108.203 546.755 108.356C542.374 108.509 539.024 105.2 538.862 100.563ZM540.365 100.51C540.503 104.444 543.126 107.138 546.708 107.013C550.29 106.888 552.719 104.017 552.582 100.084C552.444 96.1501 549.821 93.4561 546.239 93.5811C542.657 93.7062 540.228 96.5768 540.365 100.51ZM558.563 107.56L557.092 107.611L556.556 92.2603L557.74 92.2189L558.046 94.5777C558.784 92.7908 560.509 91.738 562.651 91.6632C565.114 91.5772 567.047 92.8545 567.793 94.9418C568.391 92.8076 570.199 91.3996 572.757 91.3103C575.923 91.1997 578.267 93.2312 578.393 96.813L578.743 106.855L577.336 106.904L576.992 97.054C576.894 94.2397 575.234 92.5686 572.676 92.6579C569.766 92.7596 568.246 95.086 568.326 97.3886L568.669 107.207L567.23 107.257L566.885 97.3749C566.787 94.5606 565.129 92.9215 562.57 93.0108C559.66 93.1125 558.139 95.4069 558.22 97.7095L558.563 107.56ZM582.687 113.217L581.925 91.3744L583.108 91.3331L583.452 94.7791C584.512 92.1165 586.676 90.8242 589.331 90.7315C593.84 90.5741 596.521 94.0026 596.68 98.5438C596.838 103.085 594.403 106.692 589.894 106.85C587.175 106.945 585.022 105.803 583.816 103.348L584.158 113.166L582.687 113.217ZM583.696 98.9972C583.831 102.867 586.009 105.641 589.687 105.512C593.332 105.385 595.312 102.466 595.177 98.5963C595.04 94.6947 592.863 91.953 589.218 92.0803C585.54 92.2087 583.559 95.0956 583.696 98.9972ZM601.308 106.067L599.837 106.118L599.031 83.0283L600.502 82.9769L601.308 106.067ZM611.589 106.092C607.144 106.247 604.09 103.152 603.921 98.323C603.753 93.5259 606.549 90.1303 610.834 89.9806C614.832 89.841 617.682 92.6232 617.829 96.8127L617.865 97.836L605.392 98.2716C605.666 102.457 607.928 104.875 611.542 104.749C614.26 104.654 615.946 103.41 616.474 101.119L617.977 101.066C617.192 104.263 615.043 105.971 611.589 106.092ZM610.881 91.3238C607.747 91.4332 605.616 93.685 605.382 97.0552L616.319 96.6733C616.203 93.3473 614.047 91.2132 610.881 91.3238ZM623.496 105.292L622.025 105.343L621.533 91.272L618.431 91.3803L618.387 90.1011L621.489 89.9928L621.319 85.1317L622.79 85.0804L622.96 89.9414L626.062 89.8331L626.107 91.1123L623.005 91.2206L623.496 105.292ZM634.811 105.281C630.366 105.436 627.312 102.341 627.143 97.512C626.976 92.7149 629.771 89.3193 634.056 89.1697C638.054 89.0301 640.905 91.8123 641.051 96.0017L641.087 97.0251L628.614 97.4607C628.888 101.646 631.15 104.064 634.764 103.938C637.482 103.843 639.168 102.599 639.696 100.308L641.199 100.255C640.415 103.452 638.265 105.161 634.811 105.281ZM634.103 90.5129C630.969 90.6223 628.838 92.874 628.604 96.2443L639.541 95.8623C639.425 92.5364 637.269 90.4023 634.103 90.5129ZM650.659 110.843L650.618 109.66L652.057 109.61C653.305 109.566 654.84 109.513 655.563 107.31L656.258 105.205L649.449 89.0164L650.984 88.9628L656.891 103.165L661.57 88.5931L663.073 88.5406L656.921 107.679C656.198 109.914 654.824 110.89 652.745 110.963C651.913 110.992 651.304 110.949 650.659 110.843ZM671.19 104.011C666.745 104.166 663.691 101.071 663.522 96.2416C663.355 91.4446 666.15 88.0489 670.435 87.8993C674.433 87.7597 677.284 90.5419 677.43 94.7313L677.466 95.7547L664.993 96.1903C665.268 100.375 667.529 102.794 671.143 102.668C673.861 102.573 675.547 101.329 676.075 99.0372L677.578 98.9848C676.794 102.182 674.644 103.89 671.19 104.011ZM670.482 89.2425C667.348 89.3519 665.217 91.6037 664.983 94.9739L675.92 94.5919C675.804 91.266 673.648 89.1319 670.482 89.2425ZM683.097 103.211L681.626 103.262L681.135 89.1907L678.032 89.299L677.988 88.0198L681.09 87.9115L680.92 83.0504L682.391 82.999L682.561 87.8601L685.663 87.7518L685.708 89.031L682.606 89.1393L683.097 103.211ZM688.93 103.359C687.97 103.393 687.143 102.621 687.111 101.694C687.077 100.734 687.849 99.9069 688.808 99.8734C689.768 99.8399 690.595 100.611 690.628 101.571C690.661 102.498 689.889 103.326 688.93 103.359Z" fill="#5C5790"/>
<path d="M309.665 160.831C299.879 161.173 294.04 154.893 293.722 145.779C293.291 133.45 301.285 124.43 312.51 124.038C321.337 123.729 326.846 128.82 327.404 136.533L319.392 136.813C318.679 132.9 315.693 131.275 311.807 131.411C305.283 131.638 301.451 137.44 301.716 145.019C301.897 150.2 304.851 153.651 309.696 153.482C314.014 153.331 316.883 151.598 318.37 147.415L326.621 147.127C324.186 155.809 318.251 160.531 309.665 160.831ZM334.721 159.38L327.621 159.628L332.067 123.259L339.262 123.007L337.428 137.864C339.359 135.395 341.292 134.367 344.17 134.267C349.495 134.081 353.298 138.463 352.626 143.962L350.791 158.819L343.644 159.068L345.251 145.948C345.666 142.716 344.107 140.705 341.325 140.802C338.542 140.899 336.735 142.788 336.326 146.212L334.721 159.38ZM366.343 158.852C359.243 159.1 354.98 155.31 354.743 148.499C354.454 140.248 360.137 133.805 367.908 133.534C375.344 133.274 379.642 138.071 378.711 145.788L378.488 147.669L361.558 148.357C361.862 151.564 363.452 153.093 366.522 152.986C368.777 152.907 370.469 151.84 371.318 150.033L378.322 149.788C376.87 154.978 372.003 158.654 366.343 158.852ZM367.679 139.354C365.137 139.442 363.086 141.243 362.121 143.87L371.908 143.529C372.247 140.875 370.605 139.251 367.679 139.354ZM380.193 147.61C379.905 139.359 385.588 132.917 393.359 132.645C400.219 132.406 404.429 136.053 404.648 142.337L397.453 142.588C397.225 140.195 395.691 138.904 393.148 138.992C389.742 139.111 387.314 142.462 387.466 146.828C387.577 149.994 389.174 151.715 391.956 151.618C394.163 151.541 395.937 150.086 396.717 147.657L404.009 147.403C402.782 153.545 397.934 157.749 391.794 157.963C384.694 158.211 380.431 154.422 380.193 147.61ZM412.528 156.663L405.38 156.912L409.825 120.543L416.973 120.294L414.436 141.179L423.059 132.28L432.126 131.964L421.83 142.458L428.406 156.108L420.683 156.378L416.431 147.401L413.276 150.585L412.528 156.663ZM448.474 155.408L441.758 155.642L446.203 119.273L453.351 119.023L451.528 134.216C453.176 131.901 455.624 130.471 458.934 130.355C464.594 130.158 468.925 134.521 469.153 141.045C469.448 149.488 464.324 155.43 457.129 155.682C453.819 155.797 450.597 154.325 449.227 152.211L448.474 155.408ZM450.395 144.39C450.503 147.508 452.496 149.552 455.566 149.444C459.26 149.315 462.168 145.948 462.022 141.774C461.913 138.656 459.921 136.613 456.851 136.72C453.157 136.849 450.249 140.216 450.395 144.39ZM477.945 155.003C473.58 155.155 470.512 152.573 470.373 148.591C470.199 143.602 473.597 140.506 479.958 139.755L486.654 138.945L486.687 138.512C486.891 136.103 485.455 134.856 482.768 134.95C480.034 135.046 478.539 136.251 478.284 138.565L472.048 138.783C472.712 133.044 476.773 129.684 483.345 129.455C490.397 129.209 494.33 133.202 493.503 139.763L491.739 153.897L485.455 154.116L485.391 150.9C484.368 153.242 481.351 154.884 477.945 155.003ZM480.637 149.578C483.612 149.474 485.712 147.719 486.002 145.02L486.148 143.718L482.322 144.187C478.783 144.599 477.523 145.652 477.586 147.475C477.635 148.866 478.719 149.645 480.637 149.578ZM495.688 143.577C495.4 135.326 501.083 128.883 508.854 128.612C515.714 128.372 519.924 132.02 520.143 138.304L512.948 138.555C512.72 136.162 511.186 134.87 508.644 134.959C505.238 135.078 502.809 138.429 502.962 142.794C503.072 145.96 504.669 147.682 507.452 147.585C509.658 147.507 511.432 146.053 512.212 143.624L519.504 143.369C518.277 149.512 513.429 153.716 507.289 153.93C500.189 154.178 495.926 150.388 495.688 143.577ZM528.023 152.63L520.875 152.879L525.321 116.51L532.468 116.26L529.932 137.146L538.554 128.247L547.621 127.931L537.325 138.424L543.901 152.075L536.178 152.345L531.926 143.368L528.771 146.552L528.023 152.63ZM564.197 123.51C562.182 123.58 560.691 122.143 560.622 120.176C560.535 117.682 562.711 115.348 565.254 115.26C567.268 115.189 568.759 116.626 568.828 118.593C568.913 121.039 566.691 123.422 564.197 123.51ZM557.253 151.609L560.205 127.491L567.353 127.242L564.401 151.359L557.253 151.609ZM575.61 150.968L568.463 151.218L571.415 127.1L578.131 126.865L578.317 129.452C580.248 126.983 582.181 125.955 585.06 125.855C590.384 125.669 594.188 130.051 593.515 135.55L591.68 150.407L584.533 150.656L586.14 137.536C586.555 134.304 584.996 132.293 582.214 132.39C579.432 132.487 577.626 134.423 577.216 137.8L575.61 150.968ZM613.724 149.637L606.576 149.887L611.022 113.517L618.169 113.268L613.724 149.637ZM625.289 149.857C620.923 150.01 617.855 147.427 617.716 143.446C617.542 138.457 620.94 135.36 627.302 134.61L633.997 133.8L634.03 133.366C634.234 130.958 632.798 129.711 630.112 129.805C627.377 129.9 625.882 131.105 625.627 133.42L619.391 133.637C620.055 127.899 624.116 124.539 630.688 124.309C637.74 124.063 641.674 128.056 640.846 134.617L639.082 148.751L632.798 148.971L632.734 145.755C631.711 148.096 628.694 149.739 625.289 149.857ZM627.981 144.432C630.955 144.328 633.055 142.574 633.345 139.874L633.492 138.572L629.666 139.042C626.126 139.454 624.866 140.507 624.93 142.329C624.978 143.721 626.062 144.499 627.981 144.432ZM652.075 148.298L644.928 148.547L647.128 130.411L642.667 130.567L643.418 124.585L647.88 124.43L648.773 117.002L655.921 116.752L655.027 124.18L659.489 124.024L658.737 130.006L654.276 130.162L652.075 148.298ZM669.87 148.253C662.771 148.501 658.508 144.711 658.27 137.899C657.982 129.648 663.665 123.206 671.436 122.935C678.871 122.675 683.169 127.472 682.238 135.189L682.016 137.07L665.085 137.757C665.389 140.965 666.98 142.494 670.05 142.387C672.304 142.308 673.996 141.24 674.846 139.434L681.849 139.189C680.398 144.379 675.531 148.055 669.87 148.253ZM671.207 128.754C668.664 128.843 666.614 130.644 665.649 133.271L675.435 132.929C675.775 130.276 674.133 128.652 671.207 128.754ZM702.617 122.47L701.796 129.223L699.493 129.303C695.368 129.447 692.606 131.513 692.051 136.239L690.744 146.947L683.596 147.197L686.548 123.079L693.264 122.845L693.243 126.352C694.504 123.954 696.849 122.335 699.871 122.23C700.782 122.198 701.745 122.26 702.617 122.47ZM711.582 135.605L705.73 135.81C705.448 131.881 705.786 125.049 706.533 118.923L707.498 110.821L716.085 110.521L715.119 118.623C714.373 124.749 712.933 131.668 711.582 135.605ZM707.273 146.995C705.018 147.073 703.578 145.731 703.501 143.524C703.408 140.838 705.583 138.504 708.318 138.409C710.572 138.33 712.062 139.719 712.139 141.926C712.231 144.564 709.959 146.901 707.273 146.995Z" fill="#5C5790"/>
<g clip-path="url(#clip0_122_251)">
<path d="M16.7522 100.37L16.0989 96.7025L63.8422 56.4988L122.531 77.7437L123.184 81.4112L75.4414 121.615L16.7522 100.37Z" fill="#FF9911"/>
<path d="M96.0973 78.6916L67.2665 14.1104L67.2645 14.1107C66.8102 12.7446 65.542 11.5577 63.5035 10.8197C58.9192 9.16024 52.1173 10.3719 48.388 13.5122C46.7297 14.9088 45.9491 16.4606 45.9947 17.8995L45.9928 17.8999L41.2353 88.4642C40.1893 94.0496 43.7203 99.2999 51.4519 102.099C63.512 106.464 81.4063 103.277 91.2173 95.0152C97.5063 89.719 99.0073 83.5721 96.0973 78.6916Z" fill="#F18700"/>
<path d="M96.0973 78.6916L67.2665 14.1104L67.2645 14.1107C66.8102 12.7446 65.542 11.5577 63.5035 10.8197C58.9192 9.16024 52.1173 10.3719 48.388 13.5122C46.7297 14.9088 45.9491 16.4606 45.9947 17.8995L45.9928 17.8999L41.2353 88.4642C40.1893 94.0496 43.7203 99.2999 51.4519 102.099C63.512 106.464 81.4063 103.277 91.2173 95.0152C97.5063 89.719 99.0073 83.5721 96.0973 78.6916Z" fill="#F18700"/>
<path d="M74.7878 117.947L75.4411 121.615L16.7519 100.37L16.0986 96.7025L74.7878 117.947Z" fill="#F18700"/>
<path d="M74.7883 117.947L75.4416 121.615L123.185 81.4112L122.531 77.7437L74.7883 117.947Z" fill="#D07400"/>
<path d="M49.942 22.2392C45.3577 20.5797 44.6581 16.6526 48.3875 13.5122C52.1168 10.3719 58.9186 9.16025 63.503 10.8197C68.0873 12.4791 68.7868 16.4063 65.0575 19.5466C61.3282 22.687 54.5261 23.8986 49.942 22.2392Z" fill="#FF9911"/>
<path d="M52.6538 19.9553C49.9033 18.9596 49.4836 16.6034 51.7211 14.7192C53.9585 12.835 58.0398 12.108 60.7904 13.1036C63.5409 14.0993 63.9606 16.4555 61.7231 18.3397C59.4857 20.2239 55.4044 20.9509 52.6538 19.9553Z" fill="#D07400"/>
<path d="M88.9058 62.5834L79.0955 40.6087C78.4894 41.33 77.7804 42.0405 76.9596 42.7317C69.5129 49.0022 55.931 51.4215 46.7774 48.1081C45.7684 47.7428 44.8579 47.3208 44.0397 46.853L42.4209 70.8636C43.7379 71.8754 45.2731 72.7775 47.0251 73.5392C58.8603 78.6854 76.178 75.6006 85.5082 66.6842C86.8899 65.3645 88.0195 63.9875 88.9058 62.5834Z" fill="#E0E0E2"/>
</g>
<g clip-path="url(#clip1_122_251)">
<path d="M862.194 186.947L862.644 183.249L920.069 158.793L969.961 196.296L969.512 199.994L912.087 224.45L862.194 186.947Z" fill="#FF9911"/>
<path d="M944.409 189.46L935.758 119.266L935.756 119.266C935.722 117.827 934.857 116.32 933.124 115.018C929.227 112.088 922.368 111.254 917.883 113.165C915.888 114.014 914.687 115.269 914.309 116.659L914.307 116.658L889.09 182.735C886.454 187.769 888.292 193.823 894.865 198.763C905.118 206.47 923.161 208.664 934.961 203.638C942.526 200.416 945.761 194.978 944.409 189.46Z" fill="#F18700"/>
<path d="M944.409 189.46L935.758 119.266L935.756 119.266C935.722 117.827 934.857 116.32 933.124 115.018C929.227 112.088 922.368 111.254 917.883 113.165C915.888 114.014 914.687 115.269 914.309 116.659L914.307 116.658L889.09 182.735C886.454 187.769 888.292 193.823 894.865 198.763C905.118 206.47 923.161 208.664 934.961 203.638C942.526 200.416 945.761 194.978 944.409 189.46Z" fill="#F18700"/>
<path d="M912.536 220.752L912.087 224.45L862.194 186.947L862.644 183.249L912.536 220.752Z" fill="#F18700"/>
<path d="M912.536 220.752L912.087 224.45L969.512 199.994L969.961 196.296L912.536 220.752Z" fill="#D07400"/>
<path d="M916.813 121.964C912.916 119.035 913.397 115.075 917.883 113.165C922.368 111.254 929.227 112.088 933.124 115.018C937.021 117.947 936.54 121.907 932.054 123.817C927.569 125.727 920.71 124.894 916.813 121.964Z" fill="#FF9911"/>
<path d="M920.075 120.575C917.736 118.817 918.025 116.441 920.717 115.295C923.408 114.149 927.523 114.649 929.861 116.407C932.2 118.165 931.911 120.54 929.22 121.687C926.528 122.833 922.413 122.332 920.075 120.575Z" fill="#D07400"/>
<path d="M942.251 171.952L939.308 148.067C938.517 148.579 937.631 149.051 936.643 149.471C927.687 153.286 913.992 151.621 906.21 145.772C905.353 145.127 904.606 144.457 903.96 143.77L895.38 166.253C896.343 167.606 897.546 168.919 898.998 170.16C908.807 178.547 926.269 180.67 937.802 174.877C939.509 174.02 940.993 173.034 942.251 171.952Z" fill="#E0E0E2"/>
</g>
<defs>
<filter id="filter0_d_122_251" x="66.6904" y="0" width="856.609" height="246.087" filterUnits="userSpaceOnUse" color-interpolation-filters="sRGB">
<feFlood flood-opacity="0" result="BackgroundImageFix"/>
<feColorMatrix in="SourceAlpha" type="matrix" values="0 0 0 0 0 0 0 0 0 0 0 0 0 0 0 0 0 0 127 0" result="hardAlpha"/>
<feOffset dx="-9" dy="9"/>
<feGaussianBlur stdDeviation="2"/>
<feComposite in2="hardAlpha" operator="out"/>
<feColorMatrix type="matrix" values="0 0 0 0 0 0 0 0 0 0 0 0 0 0 0 0 0 0 0.05 0"/>
<feBlend mode="normal" in2="BackgroundImageFix" result="effect1_dropShadow_122_251"/>
<feBlend mode="normal" in="SourceGraphic" in2="effect1_dropShadow_122_251" result="shape"/>
</filter>
<clipPath id="clip0_122_251">
<rect width="113" height="113" fill="white" transform="translate(0 20.2744) rotate(-10.1002)"/>
</clipPath>
<clipPath id="clip1_122_251">
<rect width="113" height="113" fill="white" transform="translate(869.637 105.458) rotate(6.93149)"/>
</clipPath>
</defs>
</svg>
